<svg width="17" height="20" viewBox="0 0 17 20" fill="none" xmlns="http://www.w3.org/2000/svg">
<path d="M8.21661 9.63409C9.54016 9.63409 10.6861 9.15939 11.6227 8.22281C12.559 7.28638 13.0338 6.14059 13.0338 4.81689C13.0338 3.49365 12.5591 2.34772 11.6225 1.41098C10.6859 0.474701 9.54001 0 8.21661 0C6.89291 0 5.74713 0.474701 4.8107 1.41113C3.87427 2.34756 3.39941 3.4935 3.39941 4.81689C3.39941 6.14059 3.87427 7.28653 4.8107 8.22296C5.74744 9.15924 6.89337 9.63409 8.21661 9.63409ZM5.63956 2.23984C6.35809 1.5213 7.20099 1.17203 8.21661 1.17203C9.23209 1.17203 10.0751 1.5213 10.7938 2.23984C11.5124 2.95853 11.8618 3.80157 11.8618 4.81689C11.8618 5.83252 11.5124 6.67542 10.7938 7.3941C10.0751 8.11279 9.23209 8.46207 8.21661 8.46207C7.20129 8.46207 6.3584 8.11264 5.63956 7.3941C4.92087 6.67557 4.57144 5.83252 4.57144 4.81689C4.57144 3.80157 4.92087 2.95853 5.63956 2.23984Z" fill="#5F6368"/>
<path d="M16.6457 15.3794C16.6187 14.9897 16.564 14.5645 16.4836 14.1156C16.4024 13.6634 16.2979 13.2358 16.1728 12.845C16.0434 12.4411 15.8678 12.0423 15.6503 11.66C15.425 11.2633 15.1601 10.9178 14.8628 10.6336C14.552 10.3362 14.1714 10.0971 13.7314 9.92267C13.2928 9.74918 12.8069 9.66129 12.287 9.66129C12.0828 9.66129 11.8854 9.74506 11.5041 9.99332C11.2694 10.1464 10.9949 10.3234 10.6885 10.5191C10.4265 10.6861 10.0716 10.8425 9.63318 10.9841C9.20547 11.1225 8.77121 11.1927 8.34244 11.1927C7.91397 11.1927 7.47971 11.1225 7.0517 10.9841C6.61377 10.8426 6.2587 10.6862 5.99716 10.5193C5.69366 10.3253 5.41901 10.1483 5.18082 9.99316C4.7998 9.7449 4.60236 9.66113 4.39819 9.66113C3.87817 9.66113 3.39233 9.74918 2.95395 9.92282C2.51419 10.0969 2.13348 10.336 1.82236 10.6337C1.52512 10.9182 1.26022 11.2635 1.035 11.66C0.817871 12.0423 0.64209 12.441 0.512695 12.8452C0.387726 13.236 0.283203 13.6634 0.202026 14.1156C0.12146 14.5639 0.0669861 14.9892 0.039978 15.3798C0.0134277 15.7617 0 16.1592 0 16.5609C0 17.6049 0.331879 18.45 0.986328 19.0734C1.63269 19.6884 2.48779 20.0003 3.52798 20.0003H13.1581C14.198 20.0003 15.0531 19.6884 15.6996 19.0734C16.3542 18.4505 16.6861 17.605 16.6861 16.5607C16.6859 16.1577 16.6724 15.7602 16.6457 15.3794ZM14.8915 18.2242C14.4644 18.6307 13.8974 18.8283 13.158 18.8283H3.52798C2.78839 18.8283 2.22137 18.6307 1.79443 18.2244C1.37558 17.8257 1.17203 17.2814 1.17203 16.5609C1.17203 16.1861 1.18439 15.8161 1.20911 15.4608C1.23322 15.1123 1.2825 14.7295 1.35559 14.3227C1.42776 13.9209 1.51962 13.5439 1.62888 13.2025C1.7337 12.8752 1.87668 12.5511 2.05399 12.239C2.22321 11.9414 2.41791 11.6861 2.63275 11.4804C2.83371 11.288 3.08701 11.1306 3.38547 11.0125C3.6615 10.9032 3.97171 10.8434 4.30847 10.8344C4.34952 10.8562 4.42261 10.8979 4.54102 10.9751C4.78195 11.1321 5.05966 11.3112 5.36667 11.5073C5.71274 11.7279 6.1586 11.9272 6.69128 12.0992C7.23587 12.2753 7.79129 12.3647 8.34259 12.3647C8.89389 12.3647 9.44946 12.2753 9.99374 12.0993C10.5269 11.9271 10.9726 11.7279 11.3191 11.507C11.6333 11.3062 11.9032 11.1322 12.1442 10.9751C12.2626 10.898 12.3357 10.8562 12.3767 10.8344C12.7136 10.8434 13.0238 10.9032 13.3 11.0125C13.5983 11.1306 13.8516 11.2882 14.0526 11.4804C14.2674 11.686 14.4621 11.9413 14.6313 12.2391C14.8088 12.5511 14.9519 12.8754 15.0566 13.2024C15.166 13.5442 15.258 13.9211 15.33 14.3225C15.403 14.7301 15.4524 15.1131 15.4765 15.461V15.4613C15.5014 15.8152 15.5139 16.185 15.5141 16.5609C15.5139 17.2815 15.3104 17.8257 14.8915 18.2242Z" fill="#5F6368"/>
</svg>
