<svg width="5" height="18" viewBox="0 0 5 18" fill="none" xmlns="http://www.w3.org/2000/svg">
<path d="M0 9.00026C0 10.1453 0.931846 11.0772 2.07692 11.0772C3.222 11.0772 4.15385 10.1453 4.15385 9.00026C4.15385 7.85519 3.222 6.92334 2.07692 6.92334C0.931846 6.92334 0 7.85519 0 9.00026Z" fill="#5F6368"/>
<path d="M0 15.9231C0 17.0682 0.931846 18 2.07692 18C3.222 18 4.15385 17.0682 4.15385 15.9231C4.15385 14.778 3.222 13.8462 2.07692 13.8462C0.931846 13.8462 0 14.778 0 15.9231Z" fill="#5F6368"/>
<path d="M0 2.07692C0 3.222 0.931846 4.15385 2.07692 4.15385C3.222 4.15385 4.15385 3.222 4.15385 2.07692C4.15385 0.931846 3.222 0 2.07692 0C0.931846 0 0 0.931846 0 2.07692Z" fill="#5F6368"/>
</svg>
