<svg width="24" height="24" viewBox="0 0 24 24" fill="none" xmlns="http://www.w3.org/2000/svg">
<circle cx="12" cy="12" r="12" fill="#F1F3F4"/>
<path d="M7.76953 9.78854V15.6539C7.76953 16.0109 7.91136 16.3533 8.16381 16.6058C8.41626 16.8582 8.75866 17.0001 9.11569 17.0001H15.6541C16.0112 17.0001 16.3536 16.8582 16.606 16.6058C16.8585 16.3533 17.0003 16.0109 17.0003 15.6539V9.78854C17.0003 9.76304 16.9902 9.73858 16.9721 9.72055C16.9541 9.70251 16.9296 9.69238 16.9041 9.69238H7.86569C7.84018 9.69238 7.81573 9.70251 7.79769 9.72055C7.77966 9.73858 7.76953 9.76304 7.76953 9.78854ZM14.1878 13.4335L12.6568 14.9643C12.5847 15.0363 12.4869 15.0768 12.3849 15.0768C12.283 15.0768 12.1852 15.0363 12.113 14.9643L10.582 13.4335C10.4356 13.2871 10.4222 13.0489 10.5616 12.8955C10.5966 12.857 10.6391 12.8259 10.6864 12.8043C10.7338 12.7826 10.785 12.7708 10.8371 12.7695C10.8891 12.7683 10.9409 12.7776 10.9892 12.7969C11.0376 12.8163 11.0815 12.8452 11.1183 12.882L12.0003 13.7638V11.2417C12.0003 11.0347 12.1594 10.857 12.3664 10.8467C12.4184 10.8442 12.4704 10.8523 12.5192 10.8705C12.568 10.8886 12.6126 10.9165 12.6502 10.9524C12.6879 10.9884 12.7179 11.0315 12.7384 11.0794C12.759 11.1273 12.7695 11.1788 12.7695 11.2308V13.7638L13.6515 12.882C13.6883 12.8452 13.7322 12.8163 13.7806 12.7969C13.8289 12.7776 13.8807 12.7683 13.9328 12.7695C13.9848 12.7708 14.0361 12.7826 14.0834 12.8043C14.1308 12.8259 14.1732 12.857 14.2082 12.8955C14.3477 13.0486 14.3342 13.2871 14.1878 13.4335Z" fill="#5F6368"/>
<path d="M17 7H7.76923C7.3444 7 7 7.3444 7 7.76923V8.15385C7 8.57868 7.3444 8.92308 7.76923 8.92308H17C17.4248 8.92308 17.7692 8.57868 17.7692 8.15385V7.76923C17.7692 7.3444 17.4248 7 17 7Z" fill="#5F6368"/>
</svg>
