<svg width="22" height="20" viewBox="0 0 22 20" fill="none" xmlns="http://www.w3.org/2000/svg">
<path d="M16.2515 8.09676C16.6457 7.8487 16.9278 7.46728 17.049 7.01491C17.1764 6.5393 17.111 6.04252 16.8648 5.6161C16.3687 4.75679 15.2804 4.44823 14.4099 4.90701L12.7544 2.03961C12.5354 1.66037 12.1806 1.38876 11.7553 1.27479C11.33 1.16083 10.8869 1.21865 10.5077 1.43764C10.1285 1.6566 9.85685 2.0114 9.74289 2.43665C9.65701 2.7571 9.66879 3.08766 9.77343 3.39338C8.98708 5.375 7.32285 7.3959 5.06333 9.11993C5.02828 9.09646 4.98954 9.07832 4.94796 9.06717C4.84845 9.04047 4.74237 9.05446 4.65312 9.10598L2.54063 10.3257C1.82994 10.736 1.32084 11.4012 1.10713 12.1988C0.893417 12.9964 1.00167 13.827 1.41204 14.5377C1.98253 15.5259 3.02102 16.0789 4.08752 16.0789C4.61026 16.0789 5.13976 15.946 5.62407 15.6664L5.74499 15.5966L8.07469 18.6382C8.23563 18.8484 8.46003 18.9721 8.72379 18.996C8.75375 18.9987 8.7834 19 8.81277 19C9.04195 19 9.25259 18.9181 9.4264 18.7604L10.068 18.1782C10.425 17.8542 10.4741 17.3205 10.182 16.9369L7.9915 14.0588C10.5933 12.9829 13.1519 12.5613 15.2447 12.8689C15.5617 13.2317 16.0184 13.4309 16.4854 13.4308C16.7642 13.4308 17.0466 13.3599 17.305 13.2108C18.0904 12.7574 18.3604 11.7496 17.907 10.9642L16.2515 8.09676ZM16.1918 6.00467C16.3342 6.25133 16.372 6.53868 16.2983 6.81379C16.2308 7.06562 16.0771 7.27933 15.8624 7.42298L14.7988 5.58078C15.2975 5.33567 15.9099 5.5164 16.1918 6.00467ZM4.08624 15.3019C3.28862 15.3018 2.51172 14.8882 2.085 14.1492C1.77846 13.6182 1.69775 12.997 1.85776 12.3999C2.01774 11.8029 2.39822 11.3052 2.92916 10.9987L4.70515 9.97331L7.01145 13.968L5.23546 14.9934C4.8732 15.2025 4.47733 15.3019 4.08624 15.3019ZM9.54573 17.6027L8.90416 18.1849C8.87024 18.2156 8.83912 18.2261 8.79369 18.2219C8.74808 18.2178 8.71948 18.202 8.69162 18.1657L6.4237 15.2047L7.44027 14.6178L9.56364 17.4076C9.60957 17.4679 9.60184 17.5518 9.54573 17.6027ZM7.5753 13.3902L5.48745 9.77393C7.6623 8.12388 9.32285 6.19693 10.241 4.26502L14.723 12.028C12.5908 11.8572 10.0917 12.3318 7.5753 13.3902ZM16.9164 12.5377C16.502 12.777 15.9705 12.6344 15.7313 12.2202L10.5787 3.29566C10.3395 2.88137 10.482 2.34977 10.8962 2.1106C11.0286 2.03417 11.1761 1.99512 11.326 1.99512C11.402 1.99512 11.4786 2.00515 11.5542 2.02539C11.7789 2.08562 11.9662 2.22865 12.0813 2.42814L17.2339 11.3527C17.4731 11.767 17.3306 12.2986 16.9164 12.5377ZM17.339 5.34236C17.2316 5.15651 17.2953 4.91886 17.4812 4.81157L19.041 3.91099C19.2269 3.80367 19.4645 3.86739 19.5718 4.05321C19.6791 4.23906 19.6155 4.47671 19.4296 4.58399L17.8697 5.48457C17.8086 5.51989 17.7417 5.53672 17.6758 5.53672C17.5415 5.53672 17.4109 5.46701 17.339 5.34236ZM15.5407 2.83979L16.4906 1.19436C16.5979 1.00855 16.8355 0.944784 17.0214 1.05214C17.2073 1.15943 17.271 1.39708 17.1636 1.58293L16.2137 3.22836C16.1417 3.35301 16.0111 3.42272 15.8768 3.42272C15.8109 3.42272 15.7441 3.40593 15.6829 3.37057C15.497 3.26329 15.4333 3.02564 15.5407 2.83979ZM20.8956 7.76251C20.8956 7.97712 20.7216 8.15108 20.5071 8.15108H18.6071C18.3926 8.15108 18.2186 7.97712 18.2186 7.76251C18.2186 7.54791 18.3926 7.37394 18.6071 7.37394H20.5071C20.7216 7.37394 20.8956 7.54791 20.8956 7.76251Z" fill="#5F6368" stroke="#5F6368" stroke-width="0.3"/>
</svg>
