<svg width="27" height="20" viewBox="0 0 27 20" fill="none" xmlns="http://www.w3.org/2000/svg">
<mask id="path-1-inside-1_953_14812" fill="white">
<path d="M20.0409 0.491311C19.7058 0.247313 19.3165 0.0881895 18.9064 0.0275698C18.4963 -0.0330499 18.0776 0.00664094 17.6862 0.143243L7.74723 3.60992H4.41316C1.97973 3.60992 0 5.89829 0 8.7108C0 11.5233 1.97973 13.8117 4.41316 13.8117H4.69988V19.1731C4.69988 19.3924 4.787 19.6027 4.94207 19.7578C5.09714 19.9129 5.30747 20 5.52677 20H5.5324L6.6778 19.9922C6.78639 19.9918 6.89384 19.9701 6.99403 19.9282C7.09421 19.8863 7.18516 19.8251 7.26169 19.7481C7.33822 19.671 7.39882 19.5797 7.44004 19.4792C7.48126 19.3787 7.50229 19.2711 7.50192 19.1625C7.50156 19.054 7.47981 18.9465 7.43792 18.8463C7.39603 18.7461 7.33482 18.6552 7.25778 18.5787C7.18074 18.5021 7.08938 18.4415 6.98892 18.4003C6.88846 18.3591 6.78086 18.3381 6.67227 18.3384H6.66659L6.35366 18.3405V13.8122H7.74723L17.6862 17.2789C17.9572 17.3739 18.2423 17.4226 18.5294 17.4229C19.0722 17.4205 19.6007 17.2484 20.0409 16.9308C20.8792 16.3354 21.3794 15.3077 21.3794 14.1814V3.24061C21.3796 2.11449 20.8792 1.08672 20.0409 0.491311ZM1.65378 8.71105C1.65378 6.81019 2.89163 5.26396 4.41316 5.26396H7.06039V12.1584H4.41316C2.89163 12.1584 1.65378 10.6119 1.65378 8.71105ZM19.7258 14.1814C19.7258 14.7641 19.4796 15.301 19.0833 15.5826C18.9633 15.6736 18.8227 15.7336 18.674 15.7572C18.5253 15.7807 18.373 15.767 18.2308 15.7174L8.71417 12.398V5.02416L18.2308 1.70472C18.373 1.65505 18.5253 1.64137 18.6741 1.66491C18.8229 1.68844 18.9636 1.74846 19.0835 1.83961C19.4799 2.12111 19.7261 2.65797 19.7261 3.24067L19.7258 14.1814ZM23.2349 2.43243C23.1905 2.33332 23.1661 2.22644 23.1631 2.11789C23.16 2.00934 23.1784 1.90125 23.2171 1.7998C23.2558 1.69834 23.3141 1.6055 23.3887 1.52659C23.4633 1.44767 23.5527 1.38422 23.6518 1.33985L25.1445 0.67178C25.2437 0.626923 25.3508 0.602094 25.4596 0.598715C25.5684 0.595337 25.6768 0.613477 25.7786 0.652094C25.8803 0.690711 25.9735 0.749045 26.0527 0.823749C26.1319 0.898453 26.1955 0.988057 26.24 1.08742C26.2845 1.18678 26.3089 1.29395 26.3118 1.40277C26.3148 1.51159 26.2962 1.61992 26.2572 1.72155C26.2182 1.82318 26.1595 1.9161 26.0845 1.99499C26.0095 2.07388 25.9196 2.13718 25.8201 2.18127L24.3274 2.84934C24.2283 2.89378 24.1214 2.91825 24.0129 2.92135C23.9043 2.92445 23.7962 2.90611 23.6947 2.86739C23.5933 2.82867 23.5004 2.77032 23.4215 2.69569C23.3426 2.62105 23.2792 2.5316 23.2349 2.43243ZM26.237 16.3334C26.1927 16.4326 26.1293 16.5221 26.0504 16.5967C25.9715 16.6713 25.8787 16.7297 25.7772 16.7684C25.6757 16.8072 25.5676 16.8255 25.4591 16.8224C25.3505 16.8193 25.2436 16.7948 25.1445 16.7504L23.6518 16.0823C23.5515 16.0387 23.4607 15.9757 23.3849 15.8969C23.3091 15.818 23.2496 15.7249 23.21 15.6229C23.1704 15.5209 23.1515 15.4121 23.1543 15.3027C23.157 15.1934 23.1815 15.0856 23.2262 14.9858C23.2709 14.8859 23.3349 14.796 23.4146 14.7211C23.4944 14.6461 23.5882 14.5878 23.6906 14.5494C23.793 14.511 23.9021 14.4933 24.0114 14.4973C24.1207 14.5014 24.2282 14.5271 24.3275 14.5729L25.8201 15.241C26.0203 15.3306 26.1766 15.496 26.2548 15.7009C26.333 15.9057 26.3266 16.1333 26.2371 16.3334H26.237ZM26.4517 8.71105C26.4517 8.93036 26.3646 9.14068 26.2095 9.29575C26.0545 9.45082 25.8441 9.53794 25.6248 9.53794H23.9897C23.7703 9.53794 23.56 9.45082 23.405 9.29575C23.2499 9.14068 23.1628 8.93036 23.1628 8.71105C23.1628 8.49175 23.2499 8.28143 23.405 8.12636C23.56 7.97128 23.7703 7.88416 23.9897 7.88416H25.6249C25.8442 7.88416 26.0545 7.97128 26.2096 8.12636C26.3646 8.28143 26.4517 8.49175 26.4517 8.71105ZM12.1148 7.96923V9.60446C12.1148 9.82376 12.0276 10.0341 11.8726 10.1892C11.7175 10.3442 11.5072 10.4313 11.2879 10.4313C11.0686 10.4313 10.8582 10.3442 10.7032 10.1892C10.5481 10.0341 10.461 9.82376 10.461 9.60446V7.96923C10.461 7.74993 10.5481 7.5396 10.7032 7.38453C10.8582 7.22946 11.0686 7.14234 11.2879 7.14234C11.5072 7.14234 11.7175 7.22946 11.8726 7.38453C12.0276 7.5396 12.1148 7.74993 12.1148 7.96923Z"/>
</mask>
<path d="M20.0409 0.491311C19.7058 0.247313 19.3165 0.0881895 18.9064 0.0275698C18.4963 -0.0330499 18.0776 0.00664094 17.6862 0.143243L7.74723 3.60992H4.41316C1.97973 3.60992 0 5.89829 0 8.7108C0 11.5233 1.97973 13.8117 4.41316 13.8117H4.69988V19.1731C4.69988 19.3924 4.787 19.6027 4.94207 19.7578C5.09714 19.9129 5.30747 20 5.52677 20H5.5324L6.6778 19.9922C6.78639 19.9918 6.89384 19.9701 6.99403 19.9282C7.09421 19.8863 7.18516 19.8251 7.26169 19.7481C7.33822 19.671 7.39882 19.5797 7.44004 19.4792C7.48126 19.3787 7.50229 19.2711 7.50192 19.1625C7.50156 19.054 7.47981 18.9465 7.43792 18.8463C7.39603 18.7461 7.33482 18.6552 7.25778 18.5787C7.18074 18.5021 7.08938 18.4415 6.98892 18.4003C6.88846 18.3591 6.78086 18.3381 6.67227 18.3384H6.66659L6.35366 18.3405V13.8122H7.74723L17.6862 17.2789C17.9572 17.3739 18.2423 17.4226 18.5294 17.4229C19.0722 17.4205 19.6007 17.2484 20.0409 16.9308C20.8792 16.3354 21.3794 15.3077 21.3794 14.1814V3.24061C21.3796 2.11449 20.8792 1.08672 20.0409 0.491311ZM1.65378 8.71105C1.65378 6.81019 2.89163 5.26396 4.41316 5.26396H7.06039V12.1584H4.41316C2.89163 12.1584 1.65378 10.6119 1.65378 8.71105ZM19.7258 14.1814C19.7258 14.7641 19.4796 15.301 19.0833 15.5826C18.9633 15.6736 18.8227 15.7336 18.674 15.7572C18.5253 15.7807 18.373 15.767 18.2308 15.7174L8.71417 12.398V5.02416L18.2308 1.70472C18.373 1.65505 18.5253 1.64137 18.6741 1.66491C18.8229 1.68844 18.9636 1.74846 19.0835 1.83961C19.4799 2.12111 19.7261 2.65797 19.7261 3.24067L19.7258 14.1814ZM23.2349 2.43243C23.1905 2.33332 23.1661 2.22644 23.1631 2.11789C23.16 2.00934 23.1784 1.90125 23.2171 1.7998C23.2558 1.69834 23.3141 1.6055 23.3887 1.52659C23.4633 1.44767 23.5527 1.38422 23.6518 1.33985L25.1445 0.67178C25.2437 0.626923 25.3508 0.602094 25.4596 0.598715C25.5684 0.595337 25.6768 0.613477 25.7786 0.652094C25.8803 0.690711 25.9735 0.749045 26.0527 0.823749C26.1319 0.898453 26.1955 0.988057 26.24 1.08742C26.2845 1.18678 26.3089 1.29395 26.3118 1.40277C26.3148 1.51159 26.2962 1.61992 26.2572 1.72155C26.2182 1.82318 26.1595 1.9161 26.0845 1.99499C26.0095 2.07388 25.9196 2.13718 25.8201 2.18127L24.3274 2.84934C24.2283 2.89378 24.1214 2.91825 24.0129 2.92135C23.9043 2.92445 23.7962 2.90611 23.6947 2.86739C23.5933 2.82867 23.5004 2.77032 23.4215 2.69569C23.3426 2.62105 23.2792 2.5316 23.2349 2.43243ZM26.237 16.3334C26.1927 16.4326 26.1293 16.5221 26.0504 16.5967C25.9715 16.6713 25.8787 16.7297 25.7772 16.7684C25.6757 16.8072 25.5676 16.8255 25.4591 16.8224C25.3505 16.8193 25.2436 16.7948 25.1445 16.7504L23.6518 16.0823C23.5515 16.0387 23.4607 15.9757 23.3849 15.8969C23.3091 15.818 23.2496 15.7249 23.21 15.6229C23.1704 15.5209 23.1515 15.4121 23.1543 15.3027C23.157 15.1934 23.1815 15.0856 23.2262 14.9858C23.2709 14.8859 23.3349 14.796 23.4146 14.7211C23.4944 14.6461 23.5882 14.5878 23.6906 14.5494C23.793 14.511 23.9021 14.4933 24.0114 14.4973C24.1207 14.5014 24.2282 14.5271 24.3275 14.5729L25.8201 15.241C26.0203 15.3306 26.1766 15.496 26.2548 15.7009C26.333 15.9057 26.3266 16.1333 26.2371 16.3334H26.237ZM26.4517 8.71105C26.4517 8.93036 26.3646 9.14068 26.2095 9.29575C26.0545 9.45082 25.8441 9.53794 25.6248 9.53794H23.9897C23.7703 9.53794 23.56 9.45082 23.405 9.29575C23.2499 9.14068 23.1628 8.93036 23.1628 8.71105C23.1628 8.49175 23.2499 8.28143 23.405 8.12636C23.56 7.97128 23.7703 7.88416 23.9897 7.88416H25.6249C25.8442 7.88416 26.0545 7.97128 26.2096 8.12636C26.3646 8.28143 26.4517 8.49175 26.4517 8.71105ZM12.1148 7.96923V9.60446C12.1148 9.82376 12.0276 10.0341 11.8726 10.1892C11.7175 10.3442 11.5072 10.4313 11.2879 10.4313C11.0686 10.4313 10.8582 10.3442 10.7032 10.1892C10.5481 10.0341 10.461 9.82376 10.461 9.60446V7.96923C10.461 7.74993 10.5481 7.5396 10.7032 7.38453C10.8582 7.22946 11.0686 7.14234 11.2879 7.14234C11.5072 7.14234 11.7175 7.22946 11.8726 7.38453C12.0276 7.5396 12.1148 7.74993 12.1148 7.96923Z" fill="#5F6368" stroke="white" stroke-width="0.4" mask="url(#path-1-inside-1_953_14812)"/>
<path d="M12.0147 7.96947V9.60469C12.0147 9.79748 11.9381 9.98236 11.8018 10.1187C11.6655 10.255 11.4806 10.3316 11.2878 10.3316C11.095 10.3316 10.9102 10.255 10.7738 10.1187C10.6375 9.98236 10.5609 9.79748 10.5609 9.60469V7.96947C10.5609 7.77668 10.6375 7.5918 10.7738 7.45548C10.9102 7.31916 11.095 7.24258 11.2878 7.24258C11.4806 7.24258 11.6655 7.31916 11.8018 7.45548C11.9381 7.5918 12.0147 7.77668 12.0147 7.96947Z" fill="white" stroke="white" stroke-width="0.2"/>
</svg>
