<svg width="36" height="36" viewBox="0 0 36 36" fill="none" xmlns="http://www.w3.org/2000/svg">
<g id="Cancel">
<circle id="Ellipse 113" cx="18" cy="18" r="18" fill="#F1F3F4"/>
<path id="Vector" d="M17.9295 16.4523L18.0002 16.523L18.0709 16.4523L22.1173 12.4059C22.5252 11.998 23.1865 11.998 23.5944 12.4059C24.0023 12.8139 24.0023 13.4752 23.5944 13.8831L19.548 17.9295L19.4773 18.0002L19.548 18.0709L23.5941 22.1169C24.002 22.5248 24.002 23.1862 23.5941 23.5941C23.1862 24.002 22.5248 24.002 22.1169 23.5941L18.0709 19.548L18.0002 19.4773L17.9295 19.548L13.8846 23.5929C13.4767 24.0008 12.8153 24.0008 12.4074 23.5929C11.9995 23.185 11.9995 22.5237 12.4074 22.1158L16.4523 18.0709L16.523 18.0002L16.4523 17.9295L12.4059 13.8831C11.998 13.4752 11.998 12.8138 12.4059 12.4059C12.8138 11.998 13.4752 11.998 13.8831 12.4059L17.9295 16.4523Z" fill="#5F6368" stroke="#F1F3F4" stroke-width="0.2"/>
</g>
</svg>
