<svg width="17" height="18" viewBox="0 0 17 18" fill="none" xmlns="http://www.w3.org/2000/svg">
<path d="M14.3177 15.5455H12.2723C12.0553 15.5455 11.8472 15.4593 11.6937 15.3058C11.5403 15.1524 11.4541 14.9443 11.4541 14.7273C11.4541 14.5103 11.5403 14.3022 11.6937 14.1487C11.8472 13.9953 12.0553 13.9091 12.2723 13.9091H14.3177C14.4258 13.9077 14.5291 13.8642 14.6055 13.7878C14.6819 13.7113 14.7255 13.6081 14.7268 13.5V2.04545C14.7255 1.93738 14.6819 1.83411 14.6055 1.75769C14.5291 1.68126 14.4258 1.63772 14.3177 1.63636H4.49956C4.39148 1.63772 4.28822 1.68126 4.21179 1.75769C4.13536 1.83411 4.09182 1.93738 4.09047 2.04545V4.09091C4.09047 4.3079 4.00426 4.51601 3.85083 4.66945C3.69739 4.82289 3.48928 4.90909 3.27228 4.90909C3.05529 4.90909 2.84718 4.82289 2.69374 4.66945C2.5403 4.51601 2.4541 4.3079 2.4541 4.09091V2.04545C2.45467 1.50314 2.67036 0.983203 3.05383 0.599729C3.4373 0.216255 3.95724 0.000569615 4.49956 0H14.3177C14.8601 0.000569615 15.38 0.216255 15.7635 0.599729C16.1469 0.983203 16.3626 1.50314 16.3632 2.04545V13.5C16.3626 14.0423 16.1469 14.5623 15.7635 14.9457C15.38 15.3292 14.8601 15.5449 14.3177 15.5455Z" fill="#5F6368"/>
<path d="M11.0455 18.0002H2.04545C1.50314 17.9997 0.983203 17.784 0.599729 17.4005C0.216255 17.017 0.000569615 16.4971 0 15.9548V5.3184C0.000569615 4.77609 0.216255 4.25615 0.599729 3.87268C0.983203 3.4892 1.50314 3.27352 2.04545 3.27295H11.0455C11.5878 3.27352 12.1077 3.4892 12.4912 3.87268C12.8747 4.25615 13.0903 4.77609 13.0909 5.3184V15.9548C13.0903 16.4971 12.8747 17.017 12.4912 17.4005C12.1077 17.784 11.5878 17.9997 11.0455 18.0002ZM2.04545 4.90931C1.937 4.90945 1.83303 4.9526 1.75634 5.02929C1.67965 5.10598 1.6365 5.20995 1.63636 5.3184V15.9548C1.6365 16.0632 1.67965 16.1672 1.75634 16.2439C1.83303 16.3206 1.937 16.3637 2.04545 16.3639H11.0455C11.1539 16.3637 11.2579 16.3206 11.3346 16.2439C11.4113 16.1672 11.4544 16.0632 11.4545 15.9548V5.3184C11.4544 5.20995 11.4113 5.10598 11.3346 5.02929C11.2579 4.9526 11.1539 4.90945 11.0455 4.90931H2.04545Z" fill="#5F6368"/>
</svg>
