<svg width="20" height="20" viewBox="0 0 20 20" fill="none" xmlns="http://www.w3.org/2000/svg">
<path d="M19.0768 7.97529C19.4401 7.97529 19.7346 7.68078 19.7346 7.31748C19.7346 6.95418 19.4401 6.65967 19.0768 6.65967C18.7135 6.65967 18.4189 6.95418 18.4189 7.31748C18.4189 7.68078 18.7135 7.97529 19.0768 7.97529Z" fill="#5F6368"/>
<path d="M9.86724 11.6239C8.7062 11.6239 7.71817 10.8681 7.37019 9.82283C7.23402 9.41367 7.5603 8.99268 7.99182 8.99268C8.26547 8.99268 8.53254 9.14858 8.61871 9.40841C8.79303 9.93071 9.28705 10.3083 9.86724 10.3083C10.4474 10.3083 10.9414 9.93071 11.1158 9.40841C11.2026 9.14923 11.4697 8.99268 11.7427 8.99268C12.1742 8.99268 12.5005 9.41302 12.3643 9.82283C12.0156 10.8681 11.0283 11.6239 9.86724 11.6239Z" fill="#5F6368"/>
<path d="M9.20898 10.9219H10.5246V14.08H9.20898V10.9219Z" fill="#5F6368"/>
<path d="M17.394 12.8883C17.0991 12.6762 16.688 12.7433 16.4759 13.0382C16.2638 13.3332 16.3309 13.7442 16.6258 13.9564L17.6939 14.7245C17.9888 14.9366 18.3999 14.8695 18.612 14.5746C18.8241 14.2796 18.757 13.8686 18.4621 13.6564L17.394 12.8883Z" fill="#5F6368"/>
<path d="M17.6861 0.383879L16.618 1.15205C16.3231 1.36417 16.2559 1.77523 16.4681 2.07017C16.6802 2.36511 17.0912 2.43224 17.3862 2.22012L18.4543 1.45195C18.7492 1.23983 18.8163 0.82877 18.6042 0.53383C18.3921 0.23889 17.981 0.171755 17.6861 0.383879Z" fill="#5F6368"/>
<path d="M0.657811 7.97529C1.02111 7.97529 1.31562 7.68078 1.31562 7.31748C1.31562 6.95418 1.02111 6.65967 0.657811 6.65967C0.294512 6.65967 0 6.95418 0 7.31748C0 7.68078 0.294512 7.97529 0.657811 7.97529Z" fill="#5F6368"/>
<path d="M9.86678 14.7375C5.87715 14.7375 2.63086 11.4912 2.63086 7.50154C2.63086 3.51192 5.87715 0.265625 9.86678 0.265625C13.8564 0.265625 17.1027 3.51192 17.1027 7.50154C17.1027 11.4912 13.8564 14.7375 9.86678 14.7375ZM9.86678 1.58125C6.60206 1.58125 3.94648 4.23748 3.94648 7.50154C3.94648 10.7656 6.60206 13.4218 9.86678 13.4218C13.1315 13.4218 15.7871 10.7656 15.7871 7.50154C15.7871 4.23748 13.1315 1.58125 9.86678 1.58125Z" fill="#5F6368"/>
<path d="M11.7379 17.3687H7.99629C6.8517 17.3687 5.9209 16.4379 5.9209 15.2934V13.1206H7.23652V15.2934C7.23652 15.7124 7.57792 16.0531 7.99629 16.0531H11.7379C12.1576 16.0531 12.4983 15.7117 12.4983 15.2934V13.1206H13.814V15.2934C13.814 16.4379 12.8825 17.3687 11.7379 17.3687Z" fill="#5F6368"/>
<path d="M9.86757 20.0001C8.41644 20.0001 7.23633 18.82 7.23633 17.3688V16.0532H12.4988V17.3688C12.4988 18.82 11.3187 20.0001 9.86757 20.0001ZM8.55195 17.3688C8.55195 18.0944 9.14201 18.6845 9.86757 18.6845C10.5931 18.6845 11.1832 18.0944 11.1832 17.3688H8.55195Z" fill="#5F6368"/>
<path d="M2.35406 12.879L1.28599 13.6472C0.991049 13.8593 0.923914 14.2703 1.13604 14.5653C1.34816 14.8602 1.75922 14.9274 2.05416 14.7152L3.12223 13.9471C3.41717 13.7349 3.4843 13.3239 3.27218 13.0289C3.06006 12.734 2.649 12.6669 2.35406 12.879Z" fill="#5F6368"/>
<path d="M2.0483 0.393162C1.75336 0.181038 1.3423 0.248174 1.13018 0.543113C0.918054 0.838053 0.98519 1.24911 1.28013 1.46123L2.3482 2.2294C2.64314 2.44153 3.0542 2.37439 3.26632 2.07945C3.47844 1.78451 3.41131 1.37346 3.11637 1.16133L2.0483 0.393162Z" fill="#5F6368"/>
</svg>
