<svg width="20" height="20" viewBox="0 0 20 20" fill="none" xmlns="http://www.w3.org/2000/svg">
<path d="M2.6 0.65H6.4C7.47696 0.65 8.35 1.52304 8.35 2.6V6.4C8.35 7.47696 7.47696 8.35 6.4 8.35H2.6C1.52304 8.35 0.65 7.47696 0.65 6.4V2.6C0.65 1.52304 1.52304 0.65 2.6 0.65ZM13.6 0.65H17.4C18.477 0.65 19.35 1.52304 19.35 2.6V6.4C19.35 7.47695 18.477 8.35 17.4 8.35H13.6C12.523 8.35 11.65 7.47696 11.65 6.4V2.6C11.65 1.52304 12.523 0.65 13.6 0.65ZM2.6 11.65H6.4C7.47696 11.65 8.35 12.523 8.35 13.6V17.4C8.35 18.477 7.47695 19.35 6.4 19.35H2.6C1.52304 19.35 0.65 18.477 0.65 17.4V13.6C0.65 12.523 1.52304 11.65 2.6 11.65ZM13.6 11.65H17.4C18.477 11.65 19.35 12.523 19.35 13.6V17.4C19.35 18.477 18.477 19.35 17.4 19.35H13.6C12.523 19.35 11.65 18.477 11.65 17.4V13.6C11.65 12.523 12.523 11.65 13.6 11.65Z" stroke="#5F6368" stroke-width="1.3"/>
</svg>
