<svg width="20" height="20" viewBox="0 0 20 20" fill="none" xmlns="http://www.w3.org/2000/svg">
<path d="M17.5524 7.5137e-08H13.243C11.8909 0.000939302 10.7953 1.09707 10.7949 2.44917V6.75856C10.7949 8.11149 11.8917 9.20829 13.2446 9.20829H17.554C18.907 9.20862 20.004 8.11204 20.0043 6.75912C20.0043 6.75895 20.0043 6.75873 20.0043 6.75856V2.44917C20.004 1.09624 18.907 -0.000331417 17.554 7.5137e-08C17.5535 7.5137e-08 17.5529 7.5137e-08 17.5524 7.5137e-08Z" fill="#1B75BB"/>
<path d="M6.76133 6.03044e-07H2.45193C1.09867 -0.000938624 0.000939226 1.09536 0 2.44862V2.44917V6.75856C0.000331492 8.11182 1.09757 9.20862 2.45083 9.20829H2.45193H6.76133C8.11425 9.20829 9.21105 8.11149 9.21105 6.75856V2.44917C9.21072 1.09646 8.11403 6.03044e-07 6.76133 6.03044e-07Z" fill="#1B75BB"/>
<path d="M17.5524 10.7921H13.243C11.8907 10.7931 10.7949 11.8895 10.7949 13.2418V17.5512C10.7955 18.9032 11.8911 19.9992 13.243 20.0004H17.5524C18.9056 20.0004 20.0027 18.9034 20.0027 17.5501V13.2407C20.0027 11.8878 18.9059 10.791 17.5529 10.791C17.5528 10.791 17.5525 10.791 17.5524 10.791V10.7921Z" fill="#1B75BB"/>
<path d="M6.76162 10.792H2.45223C1.09919 10.792 0.00228462 11.8887 0.00195312 13.2417V17.5511C0.00256086 18.9039 1.09941 20.0003 2.45223 20.0003H6.76162C8.11466 19.9999 9.21135 18.903 9.21135 17.55V13.2406C9.21074 11.8881 8.11416 10.792 6.76162 10.792Z" fill="#1B75BB"/>
</svg>
