<svg width="15" height="18" viewBox="0 0 15 18" fill="none" xmlns="http://www.w3.org/2000/svg">
<path fill-rule="evenodd" clip-rule="evenodd" d="M13.8176 3.97703C13.8176 3.63042 13.5363 3.34912 13.1897 3.34912H1.46873C1.12212 3.34912 0.84082 3.63042 0.84082 3.97703V15.2794C0.84082 16.001 1.12715 16.6934 1.63784 17.2033C2.1477 17.714 2.84008 18.0003 3.56175 18.0003H11.0966C11.8183 18.0003 12.5107 17.714 13.0205 17.2033C13.5312 16.6934 13.8176 16.001 13.8176 15.2794C13.8176 11.5119 13.8176 3.97703 13.8176 3.97703ZM12.5618 4.60494V15.2794C12.5618 15.6678 12.4077 16.0404 12.1323 16.315C11.8577 16.5904 11.4851 16.7445 11.0966 16.7445C8.96845 16.7445 5.68994 16.7445 3.56175 16.7445C3.17329 16.7445 2.80073 16.5904 2.52612 16.315C2.25068 16.0404 2.09663 15.6678 2.09663 15.2794V4.60494H12.5618Z" fill="#5F6368"/>
<path fill-rule="evenodd" clip-rule="evenodd" d="M11.0964 4.60465C11.443 4.60465 11.7243 4.32335 11.7243 3.97674C11.7243 3.97674 11.7243 3.13954 11.7243 2.30233C11.7243 1.692 11.4815 1.10595 11.0503 0.673954C10.6183 0.242791 10.0323 0 9.42197 0C8.1762 0 6.48169 0 5.23592 0C4.62559 0 4.03955 0.242791 3.60755 0.673954C3.17638 1.10595 2.93359 1.692 2.93359 2.30233V3.97674C2.93359 4.32335 3.2149 4.60465 3.5615 4.60465H11.0964ZM10.4685 3.34884H4.18941V2.30233C4.18941 2.02437 4.29992 1.75898 4.49583 1.56223C4.69257 1.36633 4.95797 1.25581 5.23592 1.25581H9.42197C9.69992 1.25581 9.96532 1.36633 10.1621 1.56223C10.358 1.75898 10.4685 2.02437 10.4685 2.30233V3.34884Z" fill="#5F6368"/>
<path fill-rule="evenodd" clip-rule="evenodd" d="M14.0272 3.34912H0.631813C0.285209 3.34912 0.00390625 3.63042 0.00390625 3.97703C0.00390625 4.32363 0.285209 4.60494 0.631813 4.60494H14.0272C14.3738 4.60494 14.6551 4.32363 14.6551 3.97703C14.6551 3.63042 14.3738 3.34912 14.0272 3.34912Z" fill="#5F6368"/>
<path fill-rule="evenodd" clip-rule="evenodd" d="M4.6084 7.74412V13.6046C4.6084 13.9512 4.8897 14.2325 5.23631 14.2325C5.58291 14.2325 5.86421 13.9512 5.86421 13.6046V7.74412C5.86421 7.39751 5.58291 7.11621 5.23631 7.11621C4.8897 7.11621 4.6084 7.39751 4.6084 7.74412Z" fill="#5F6368"/>
<path fill-rule="evenodd" clip-rule="evenodd" d="M8.79492 7.74412V13.6046C8.79492 13.9512 9.07622 14.2325 9.42283 14.2325C9.76943 14.2325 10.0507 13.9512 10.0507 13.6046V7.74412C10.0507 7.39751 9.76943 7.11621 9.42283 7.11621C9.07622 7.11621 8.79492 7.39751 8.79492 7.74412Z" fill="#5F6368"/>
</svg>
