<svg width="24" height="24" viewBox="0 0 24 24" fill="none" xmlns="http://www.w3.org/2000/svg">
<circle cx="12" cy="12" r="12" fill="#F1F3F4"/>
<path d="M16.1071 11.1071H13.0714C12.9728 11.1071 12.8929 11.0272 12.8929 10.9286V7.89286C12.8929 7.39978 12.4931 7 12 7C11.5069 7 11.1071 7.39978 11.1071 7.89286V10.9286C11.1071 11.0272 11.0272 11.1071 10.9286 11.1071H7.89286C7.39978 11.1071 7 11.5069 7 12C7 12.4931 7.39978 12.8929 7.89286 12.8929H10.9286C11.0272 12.8929 11.1071 12.9728 11.1071 13.0714V16.1071C11.1071 16.6002 11.5069 17 12 17C12.4931 17 12.8929 16.6002 12.8929 16.1071V13.0714C12.8929 12.9728 12.9728 12.8929 13.0714 12.8929H16.1071C16.6002 12.8929 17 12.4931 17 12C17 11.5069 16.6002 11.1071 16.1071 11.1071Z" fill="#202124"/>
</svg>
