<svg width="19" height="20" viewBox="0 0 19 20" fill="none" xmlns="http://www.w3.org/2000/svg">
<path d="M13.6307 8.65784V4.87289C13.6307 4.76456 13.5806 4.66446 13.5098 4.58527L9.26636 0.129242C9.18716 0.0459289 9.07455 0 8.9621 0H2.23419C0.992126 0 0 1.01288 0 2.2551V14.9771C0 16.2193 0.992126 17.2156 2.23419 17.2156H7.54486C8.54935 18.8829 10.3752 20 12.4551 20C15.6148 20 18.195 17.4323 18.195 14.2685C18.1993 11.5048 16.2151 9.19556 13.6307 8.65784ZM9.37897 1.46317L12.226 4.46014H10.3793C9.8291 4.46014 9.37897 4.00589 9.37897 3.45566V1.46317ZM2.23419 16.3818C1.45477 16.3818 0.83374 15.7565 0.83374 14.9771V2.2551C0.83374 1.47141 1.45477 0.83374 2.23419 0.83374H8.54523V3.45566C8.54523 4.46854 9.36645 5.29388 10.3793 5.29388H12.7969V8.54935C12.672 8.54523 12.5719 8.53271 12.4635 8.53271C11.0088 8.53271 9.67071 9.09134 8.66196 9.96674H3.36807C3.13873 9.96674 2.9512 10.1543 2.9512 10.3835C2.9512 10.6128 3.13873 10.8003 3.36807 10.8003H7.88666C7.59064 11.2172 7.34467 11.6341 7.15301 12.0926H3.36807C3.13873 12.0926 2.9512 12.2801 2.9512 12.5095C2.9512 12.7386 3.13873 12.9263 3.36807 12.9263H6.88202C6.7778 13.3432 6.72363 13.8058 6.72363 14.2685C6.72363 15.0188 6.86951 15.7608 7.13211 16.3861H2.23419V16.3818ZM12.4594 19.1705C9.7583 19.1705 7.56149 16.9737 7.56149 14.2726C7.56149 11.5715 9.75403 9.37469 12.4594 9.37469C15.1646 9.37469 17.3572 11.5715 17.3572 14.2726C17.3572 16.9737 15.1605 19.1705 12.4594 19.1705Z" fill="#202124"/>
<path d="M3.36804 8.71265H7.59061C7.81995 8.71265 8.00748 8.52496 8.00748 8.29578C8.00748 8.06644 7.81995 7.87891 7.59061 7.87891H3.36804C3.1387 7.87891 2.95117 8.06644 2.95117 8.29578C2.95117 8.52496 3.1387 8.71265 3.36804 8.71265Z" fill="#202124"/>
<path d="M14.5929 14.1856L12.8798 16.0322V11.4803C12.8798 11.251 12.6921 11.0635 12.4629 11.0635C12.2336 11.0635 12.046 11.251 12.046 11.4803V16.0322L10.3203 14.1856C10.1619 14.019 9.89517 14.0064 9.72839 14.1648C9.56161 14.3232 9.5491 14.5858 9.70764 14.7526L12.1461 17.3745C12.2253 17.4578 12.3337 17.5079 12.4504 17.5079C12.5671 17.5079 12.6755 17.4578 12.7547 17.3745L15.1974 14.7526C15.3558 14.5858 15.3474 14.3191 15.1807 14.1648C15.0098 14.0064 14.7514 14.019 14.5929 14.1856Z" fill="#202124"/>
</svg>
