<svg width="30" height="30" viewBox="0 0 30 30" fill="none" xmlns="http://www.w3.org/2000/svg">
<circle cx="15" cy="15" r="14.5" stroke="#919294"/>
<path d="M16.8912 9.67432L8.07857 18.4876C8.03423 18.5321 8.00222 18.5882 7.98697 18.6486L7.01017 22.5692C6.98096 22.6873 7.01564 22.8128 7.10177 22.8989C7.16694 22.9641 7.25574 23.0002 7.34657 23.0002C7.37439 23.0002 7.40285 22.9967 7.43055 22.9897L11.3512 22.0128C11.4123 21.9976 11.4678 21.9657 11.5122 21.9213L20.3256 13.1087L16.8912 9.67432Z" fill="#919294"/>
<path d="M22.5089 8.47249L21.5279 7.4915C20.8723 6.83585 19.7296 6.83649 19.0747 7.4915L17.873 8.69316L21.3073 12.1274L22.5089 10.9257C22.8364 10.5984 23.0168 10.1626 23.0168 9.69917C23.0168 9.23574 22.8364 8.79999 22.5089 8.47249Z" fill="#919294"/>
</svg>
