<svg width="18" height="18" viewBox="0 0 18 18" fill="none" xmlns="http://www.w3.org/2000/svg">
<path d="M1.34133 14.4H1.43864L6.13322 13.3784C6.22466 13.3631 6.3094 13.3208 6.37644 13.2568L14.3304 5.30275C14.9115 4.72296 15.2356 3.93436 15.2304 3.11359C15.2315 2.28644 14.9084 1.49184 14.3304 0.900083C13.7507 0.31904 12.9621 -0.00514373 12.1413 0.000117328C11.3152 -0.00719228 10.5229 0.327327 9.95209 0.924433L2.02238 8.8784C1.95245 8.93469 1.90147 9.01109 1.87642 9.09732L0.854846 13.7919C0.826958 13.9604 0.881152 14.1321 1.00081 14.2541C1.09062 14.3457 1.21302 14.3982 1.34133 14.4ZM12.1413 0.973086C13.31 0.972993 14.2575 1.9204 14.2576 3.08915C14.2576 3.0973 14.2575 3.10544 14.2575 3.11359C14.2654 3.67038 14.0458 4.20631 13.6494 4.59735L10.6575 1.58113C11.0517 1.18944 11.5855 0.970619 12.1413 0.973086ZM9.9764 2.28658L12.9683 5.27844L6.03587 12.1865L3.044 9.21893L9.9764 2.28658ZM2.65483 10.1919L5.0629 12.6L1.97373 13.2811L2.65483 10.1919Z" fill="#5F6368"/>
<path d="M16.7876 17.0269H0.490391C0.221705 17.0269 0.00390625 17.2447 0.00390625 17.5133C0.00390625 17.782 0.221705 17.9998 0.490391 17.9998H16.7876C17.0563 17.9998 17.2741 17.782 17.2741 17.5133C17.2741 17.2447 17.0563 17.0269 16.7876 17.0269Z" fill="#5F6368"/>
</svg>
