<svg width="16" height="14" viewBox="0 0 16 14" fill="none" xmlns="http://www.w3.org/2000/svg">
<path d="M11.2 2.1C11.2 1.68466 11.3232 1.27865 11.5539 0.933303C11.7847 0.58796 12.1126 0.318798 12.4964 0.159854C12.8801 0.0009099 13.3023 -0.0406771 13.7097 0.0403518C14.117 0.121381 14.4912 0.321386 14.7849 0.615077C15.0786 0.908767 15.2786 1.28295 15.3596 1.69031C15.4407 2.09767 15.3991 2.51991 15.2401 2.90364C15.0812 3.28736 14.812 3.61533 14.4667 3.84609C14.1213 4.07684 13.7153 4.2 13.3 4.2C12.743 4.2 12.2089 3.97875 11.8151 3.58492C11.4212 3.1911 11.2 2.65695 11.2 2.1ZM0.7 2.8H9.1C9.28565 2.8 9.46369 2.72625 9.59497 2.59497C9.72625 2.4637 9.8 2.28565 9.8 2.1C9.8 1.91435 9.72625 1.7363 9.59497 1.60503C9.46369 1.47375 9.28565 1.4 9.1 1.4H0.7C0.514348 1.4 0.336301 1.47375 0.205025 1.60503C0.0737497 1.7363 0 1.91435 0 2.1C0 2.28565 0.0737497 2.4637 0.205025 2.59497C0.336301 2.72625 0.514348 2.8 0.7 2.8ZM4.9 4.9C4.46674 4.90122 4.04446 5.03641 3.69105 5.28706C3.33765 5.5377 3.07042 5.89151 2.926 6.3H0.7C0.514348 6.3 0.336301 6.37375 0.205025 6.50502C0.0737497 6.6363 0 6.81435 0 7C0 7.18565 0.0737497 7.3637 0.205025 7.49497C0.336301 7.62625 0.514348 7.7 0.7 7.7H2.926C3.05442 8.06321 3.28027 8.3841 3.57885 8.62755C3.87743 8.871 4.23722 9.02762 4.61885 9.08028C5.00048 9.13294 5.38925 9.0796 5.74259 8.92611C6.09594 8.77261 6.40026 8.52488 6.62224 8.21001C6.84422 7.89515 6.97531 7.52529 7.00116 7.14091C7.02701 6.75653 6.94663 6.37245 6.76881 6.03069C6.59099 5.68894 6.32259 5.40268 5.99298 5.20326C5.66336 5.00383 5.28524 4.89892 4.9 4.9ZM14.7 6.3H9.1C8.91434 6.3 8.7363 6.37375 8.60502 6.50502C8.47375 6.6363 8.4 6.81435 8.4 7C8.4 7.18565 8.47375 7.3637 8.60502 7.49497C8.7363 7.62625 8.91434 7.7 9.1 7.7H14.7C14.8856 7.7 15.0637 7.62625 15.195 7.49497C15.3262 7.3637 15.4 7.18565 15.4 7C15.4 6.81435 15.3262 6.6363 15.195 6.50502C15.0637 6.37375 14.8856 6.3 14.7 6.3ZM6.3 11.2H0.7C0.514348 11.2 0.336301 11.2737 0.205025 11.405C0.0737497 11.5363 0 11.7143 0 11.9C0 12.0856 0.0737497 12.2637 0.205025 12.395C0.336301 12.5262 0.514348 12.6 0.7 12.6H6.3C6.48565 12.6 6.6637 12.5262 6.79497 12.395C6.92625 12.2637 7 12.0856 7 11.9C7 11.7143 6.92625 11.5363 6.79497 11.405C6.6637 11.2737 6.48565 11.2 6.3 11.2ZM14.7 11.2H12.474C12.3089 10.7329 11.9839 10.3393 11.5567 10.0887C11.1294 9.838 10.6272 9.74647 10.139 9.83024C9.65074 9.91401 9.20782 10.1677 8.88852 10.5464C8.56922 10.9252 8.3941 11.4046 8.3941 11.9C8.3941 12.3954 8.56922 12.8748 8.88852 13.2536C9.20782 13.6323 9.65074 13.886 10.139 13.9698C10.6272 14.0535 11.1294 13.962 11.5567 13.7113C11.9839 13.4607 12.3089 13.067 12.474 12.6H14.7C14.8856 12.6 15.0637 12.5262 15.195 12.395C15.3262 12.2637 15.4 12.0856 15.4 11.9C15.4 11.7143 15.3262 11.5363 15.195 11.405C15.0637 11.2737 14.8856 11.2 14.7 11.2Z" fill="#202124"/>
</svg>
