<svg width="20" height="20" viewBox="0 0 20 20" fill="none" xmlns="http://www.w3.org/2000/svg">
<path d="M10 0C4.47301 0 0 4.4725 0 10C0 15.5269 4.4725 20 10 20C15.527 20 20 15.5275 20 10C20 4.47301 15.5275 0 10 0ZM10 18.6046C5.25539 18.6046 1.39535 14.7446 1.39535 10C1.39535 5.25535 5.25539 1.39535 10 1.39535C14.7446 1.39535 18.6046 5.25535 18.6046 10C18.6046 14.7446 14.7446 18.6046 10 18.6046Z" fill="#5F6368"/>
<path d="M9.70449 12.6533C9.15164 12.6533 8.7041 13.114 8.7041 13.6668C8.7041 14.2066 9.13848 14.6804 9.70449 14.6804C10.2705 14.6804 10.718 14.2066 10.718 13.6668C10.718 13.114 10.2573 12.6533 9.70449 12.6533Z" fill="#5F6368"/>
<path d="M9.87535 4.97949C8.09832 4.97949 7.28223 6.03258 7.28223 6.74336C7.28223 7.25672 7.7166 7.49367 8.07199 7.49367C8.78281 7.49367 8.49324 6.48008 9.83586 6.48008C10.494 6.48008 11.0205 6.76969 11.0205 7.3752C11.0205 8.08598 10.2834 8.49402 9.84902 8.86258C9.46727 9.1916 8.96711 9.73133 8.96711 10.8634C8.96711 11.5478 9.15141 11.7453 9.69105 11.7453C10.336 11.7453 10.4677 11.4557 10.4677 11.2055C10.4677 10.5211 10.4808 10.1262 11.2048 9.5602C11.5602 9.28379 12.679 8.38867 12.679 7.15137C12.679 5.91406 11.5602 4.97949 9.87535 4.97949Z" fill="#5F6368"/>
</svg>
