<svg width="20" height="20" viewBox="0 0 20 20" fill="none" xmlns="http://www.w3.org/2000/svg">
<path d="M19.3747 9.375H11.458C11.113 9.375 10.833 9.095 10.833 8.75C10.833 8.405 11.113 8.125 11.458 8.125H19.3747C19.7197 8.125 19.9997 8.405 19.9997 8.75C19.9997 9.095 19.7197 9.375 19.3747 9.375Z" fill="#5F6368"/>
<path d="M16.2498 12.5C16.0898 12.5 15.9299 12.4391 15.8081 12.3168C15.564 12.0725 15.564 11.6767 15.8081 11.4325L18.4915 8.74926L15.8081 6.06585C15.564 5.82171 15.564 5.4259 15.8081 5.18176C16.0524 4.93746 16.4482 4.93746 16.6924 5.18176L19.8174 8.30676C20.0615 8.5509 20.0615 8.94671 19.8174 9.19085L16.6924 12.3158C16.5698 12.4391 16.4099 12.5 16.2498 12.5Z" fill="#5F6368"/>
<path d="M6.66672 20C6.48834 20 6.31912 19.975 6.15005 19.9225L1.13495 18.2516C0.452576 18.0133 0 17.3775 0 16.6667V1.66672C0 0.747528 0.747528 0 1.66672 0C1.84494 0 2.01416 0.0250244 2.18338 0.0775147L7.19833 1.74835C7.88086 1.98669 8.33328 2.62253 8.33328 3.33328V18.3333C8.33328 19.2525 7.58591 20 6.66672 20ZM1.66672 1.25C1.43753 1.25 1.25 1.43753 1.25 1.66672V16.6667C1.25 16.8442 1.36917 17.0091 1.53915 17.0683L6.53076 18.7317C6.56662 18.7433 6.61331 18.75 6.66672 18.75C6.8959 18.75 7.08328 18.5625 7.08328 18.3333V3.33328C7.08328 3.15582 6.96411 2.99088 6.79413 2.93167L1.80252 1.26831C1.76666 1.25671 1.71997 1.25 1.66672 1.25Z" fill="#5F6368"/>
<path d="M12.7086 6.66672C12.3636 6.66672 12.0836 6.38672 12.0836 6.04172V2.29172C12.0836 1.71753 11.6162 1.25 11.042 1.25H1.66699C1.32199 1.25 1.04199 0.970001 1.04199 0.625C1.04199 0.279999 1.32199 0 1.66699 0H11.042C12.3062 0 13.3336 1.02753 13.3336 2.29172V6.04172C13.3336 6.38672 13.0536 6.66672 12.7086 6.66672Z" fill="#5F6368"/>
<path d="M11.0414 17.4997H7.70801C7.36301 17.4997 7.08301 17.2197 7.08301 16.8747C7.08301 16.5297 7.36301 16.2497 7.70801 16.2497H11.0414C11.6156 16.2497 12.083 15.7822 12.083 15.208V11.458C12.083 11.113 12.363 10.833 12.708 10.833C13.053 10.833 13.333 11.113 13.333 11.458V15.208C13.333 16.4722 12.3056 17.4997 11.0414 17.4997Z" fill="#5F6368"/>
</svg>
