<svg width="40" height="40" viewBox="0 0 40 40" fill="none" xmlns="http://www.w3.org/2000/svg">
<circle cx="20" cy="20" r="20" fill="#F1F3F4"/>
<path d="M15 14C15 13.4477 15.4477 13 16 13H29C29.5523 13 30 13.4477 30 14C30 14.5523 29.5523 15 29 15H16C15.4477 15 15 14.5522 15 14ZM29 19H11C10.4477 19 10 19.4478 10 20C10 20.5523 10.4477 21 11 21H29C29.5523 21 30 20.5523 30 20C30 19.4478 29.5523 19 29 19ZM29 25H20C19.4478 25 19 25.4477 19 26C19 26.5522 19.4478 27 20 27H29C29.5523 27 30 26.5522 30 26C30 25.4477 29.5523 25 29 25Z" fill="#202124"/>
</svg>
