<svg width="21" height="20" viewBox="0 0 21 20" fill="none" xmlns="http://www.w3.org/2000/svg">
<path d="M8.83301 20C7.1106 20 5.70801 18.5983 5.70801 16.875C5.70801 16.53 5.98801 16.25 6.33301 16.25C6.67801 16.25 6.95801 16.53 6.95801 16.875C6.95801 17.9092 7.79968 18.75 8.83301 18.75C9.86633 18.75 10.708 17.9092 10.708 16.875C10.708 16.53 10.988 16.25 11.333 16.25C11.678 16.25 11.958 16.53 11.958 16.875C11.958 18.5983 10.5556 20 8.83301 20Z" fill="#5F6368"/>
<path d="M15.7083 17.5001H1.95828C1.15414 17.5001 0.5 16.8459 0.5 16.0418C0.5 15.615 0.685852 15.211 1.00995 14.9334C1.03085 14.9151 1.05328 14.8985 1.07663 14.8834C2.29993 13.8159 3 12.2801 3 10.6583V8.33337C3 5.61928 4.83914 3.28927 7.47251 2.66671C7.80912 2.58919 8.14588 2.79503 8.22507 3.1318C8.30411 3.46764 8.09583 3.80425 7.7609 3.88344C5.69333 4.37173 4.25 6.20171 4.25 8.33337V10.6583C4.25 12.6717 3.36743 14.5768 1.83087 15.8842C1.81836 15.8943 1.80753 15.9034 1.7941 15.9126C1.77167 15.9409 1.75 15.9843 1.75 16.0418C1.75 16.155 1.84506 16.2501 1.95828 16.2501H15.7083C15.8217 16.2501 15.9167 16.155 15.9167 16.0418C15.9167 15.9834 15.8951 15.9409 15.8717 15.9126C15.8592 15.9034 15.8474 15.8943 15.8359 15.8842C15.0892 15.2476 14.4999 14.4793 14.0851 13.6001C13.9367 13.2884 14.07 12.9159 14.3825 12.7676C14.6975 12.6193 15.0667 12.7543 15.2142 13.0659C15.5441 13.7626 16.0066 14.3743 16.5916 14.886C16.6133 14.9009 16.6359 14.9168 16.6549 14.9334C16.9809 15.211 17.1667 15.615 17.1667 16.0418C17.1667 16.8459 16.5126 17.5001 15.7083 17.5001Z" fill="#5F6368"/>
<path d="M15.0836 10.8333C12.097 10.8333 9.66699 8.40332 9.66699 5.41672C9.66699 2.42996 12.097 0 15.0836 0C18.0703 0 20.5003 2.42996 20.5003 5.41672C20.5003 8.40332 18.0703 10.8333 15.0836 10.8333ZM15.0836 1.25C12.786 1.25 10.917 3.1192 10.917 5.41672C10.917 7.71424 12.786 9.58329 15.0836 9.58329C17.3811 9.58329 19.2503 7.71424 19.2503 5.41672C19.2503 3.1192 17.3811 1.25 15.0836 1.25Z" fill="#5F6368"/>
<path d="M15.2917 7.91644C14.9467 7.91644 14.6667 7.63645 14.6667 7.29144V4.58301H14.25C13.905 4.58301 13.625 4.30301 13.625 3.95801C13.625 3.61301 13.905 3.33301 14.25 3.33301H15.2917C15.6367 3.33301 15.9167 3.61301 15.9167 3.95801V7.29144C15.9167 7.63645 15.6367 7.91644 15.2917 7.91644Z" fill="#5F6368"/>
<path d="M8.83301 20C7.1106 20 5.70801 18.5983 5.70801 16.875C5.70801 16.53 5.98801 16.25 6.33301 16.25C6.67801 16.25 6.95801 16.53 6.95801 16.875C6.95801 17.9092 7.79968 18.75 8.83301 18.75C9.86633 18.75 10.708 17.9092 10.708 16.875C10.708 16.53 10.988 16.25 11.333 16.25C11.678 16.25 11.958 16.53 11.958 16.875C11.958 18.5983 10.5556 20 8.83301 20Z" fill="#5F6368"/>
<path d="M15.7083 17.5001H1.95828C1.15414 17.5001 0.5 16.8459 0.5 16.0418C0.5 15.615 0.685852 15.211 1.00995 14.9334C1.03085 14.9151 1.05328 14.8985 1.07663 14.8834C2.29993 13.8159 3 12.2801 3 10.6583V8.33337C3 5.61928 4.83914 3.28927 7.47251 2.66671C7.80912 2.58919 8.14588 2.79503 8.22507 3.1318C8.30411 3.46764 8.09583 3.80425 7.7609 3.88344C5.69333 4.37173 4.25 6.20171 4.25 8.33337V10.6583C4.25 12.6717 3.36743 14.5768 1.83087 15.8842C1.81836 15.8943 1.80753 15.9034 1.7941 15.9126C1.77167 15.9409 1.75 15.9843 1.75 16.0418C1.75 16.155 1.84506 16.2501 1.95828 16.2501H15.7083C15.8217 16.2501 15.9167 16.155 15.9167 16.0418C15.9167 15.9834 15.8951 15.9409 15.8717 15.9126C15.8592 15.9034 15.8474 15.8943 15.8359 15.8842C15.0892 15.2476 14.4999 14.4793 14.0851 13.6001C13.9367 13.2884 14.07 12.9159 14.3825 12.7676C14.6975 12.6193 15.0667 12.7543 15.2142 13.0659C15.5441 13.7626 16.0066 14.3743 16.5916 14.886C16.6133 14.9009 16.6359 14.9168 16.6549 14.9334C16.9809 15.211 17.1667 15.615 17.1667 16.0418C17.1667 16.8459 16.5126 17.5001 15.7083 17.5001Z" fill="#5F6368"/>
<path d="M15.0836 10.8333C12.097 10.8333 9.66699 8.40332 9.66699 5.41672C9.66699 2.42996 12.097 0 15.0836 0C18.0703 0 20.5003 2.42996 20.5003 5.41672C20.5003 8.40332 18.0703 10.8333 15.0836 10.8333ZM15.0836 1.25C12.786 1.25 10.917 3.1192 10.917 5.41672C10.917 7.71424 12.786 9.58329 15.0836 9.58329C17.3811 9.58329 19.2503 7.71424 19.2503 5.41672C19.2503 3.1192 17.3811 1.25 15.0836 1.25Z" fill="#5F6368"/>
<path d="M15.2917 7.91644C14.9467 7.91644 14.6667 7.63645 14.6667 7.29144V4.58301H14.25C13.905 4.58301 13.625 4.30301 13.625 3.95801C13.625 3.61301 13.905 3.33301 14.25 3.33301H15.2917C15.6367 3.33301 15.9167 3.61301 15.9167 3.95801V7.29144C15.9167 7.63645 15.6367 7.91644 15.2917 7.91644Z" fill="#5F6368"/>
</svg>
