<svg width="24" height="24" viewBox="0 0 24 24" fill="none" xmlns="http://www.w3.org/2000/svg">
<circle cx="12" cy="12" r="12" fill="#F1F3F4"/>
<path d="M10.875 7.875V16.125C10.875 16.4234 10.7565 16.7095 10.5455 16.9205C10.3345 17.1315 10.0484 17.25 9.75 17.25H9.375C9.07663 17.25 8.79048 17.1315 8.5795 16.9205C8.36853 16.7095 8.25 16.4234 8.25 16.125V7.875C8.25 7.57663 8.36853 7.29048 8.5795 7.0795C8.79048 6.86853 9.07663 6.75 9.375 6.75H9.75C10.0484 6.75 10.3345 6.86853 10.5455 7.0795C10.7565 7.29048 10.875 7.57663 10.875 7.875ZM14.625 6.75H14.25C13.9516 6.75 13.6655 6.86853 13.4545 7.0795C13.2435 7.29048 13.125 7.57663 13.125 7.875V16.125C13.125 16.4234 13.2435 16.7095 13.4545 16.9205C13.6655 17.1315 13.9516 17.25 14.25 17.25H14.625C14.9234 17.25 15.2095 17.1315 15.4205 16.9205C15.6315 16.7095 15.75 16.4234 15.75 16.125V7.875C15.75 7.57663 15.6315 7.29048 15.4205 7.0795C15.2095 6.86853 14.9234 6.75 14.625 6.75Z" fill="#5F6368"/>
</svg>
