<svg width="15" height="15" viewBox="0 0 15 15" fill="none" xmlns="http://www.w3.org/2000/svg">
<path d="M0.514859 15H0.61634L5.51237 13.9358C5.60773 13.92 5.6961 13.8758 5.76603 13.8091L14.0613 5.5237C14.6673 4.91975 15.0054 4.09829 14.9999 3.24332C15.0011 2.38171 14.6641 1.554 14.0613 0.937587C13.4567 0.332333 12.6342 -0.00535805 11.7782 0.000122216C10.9167 -0.00749196 10.0904 0.340966 9.49511 0.962952L1.22513 9.24834C1.1522 9.30697 1.09903 9.38656 1.07291 9.47638L0.00749872 14.3666C-0.0215862 14.5421 0.0349328 14.721 0.159721 14.848C0.253385 14.9435 0.381039 14.9981 0.514859 15ZM11.7782 1.01363C12.9971 1.01354 13.9853 2.00042 13.9854 3.21786C13.9854 3.22635 13.9853 3.23484 13.9852 3.24332C13.9935 3.82331 13.7644 4.38157 13.351 4.78891L10.2308 1.64702C10.6419 1.239 11.1986 1.01106 11.7782 1.01363ZM9.52046 2.38186L12.6407 5.49838L5.41084 12.6943L2.29059 9.60305L9.52046 2.38186ZM1.88472 10.6166L4.39612 13.125L1.17439 13.8345L1.88472 10.6166Z" fill="#1B75BB"/>
</svg>
