<svg width="20" height="20" viewBox="0 0 20 20" fill="none" xmlns="http://www.w3.org/2000/svg">
<circle cx="10" cy="10" r="10" fill="#1E783C"/>
<path d="M13.5205 8.87297H10.4222V5.77461C10.4222 5.34703 10.0759 5 9.64758 5C9.21922 5 8.87297 5.34703 8.87297 5.77461V8.87297H5.77461C5.34625 8.87297 5 9.22 5 9.64758C5 10.0752 5.34625 10.4222 5.77461 10.4222H8.87297V13.5205C8.87297 13.9481 9.21922 14.2952 9.64758 14.2952C10.0759 14.2952 10.4222 13.9481 10.4222 13.5205V10.4222H13.5205C13.9489 10.4222 14.2952 10.0752 14.2952 9.64758C14.2952 9.22 13.9489 8.87297 13.5205 8.87297Z" fill="white"/>
</svg>
