<svg width="43" height="42" viewBox="0 0 43 42" fill="none" xmlns="http://www.w3.org/2000/svg">
<circle cx="21.5" cy="21" r="21" fill="#8D6E63"/>
<path d="M22.8561 15C22.9041 15 23.0454 15 23.2801 15C23.5147 15 23.7921 15 24.1121 15C24.4374 15 24.7654 15.0027 25.0961 15.008C25.4321 15.008 25.7227 15.0107 25.9681 15.016C27.3761 15.0427 28.5201 15.2853 29.4001 15.744C30.2854 16.1973 30.9334 16.8453 31.3441 17.688C31.7601 18.5253 31.9681 19.536 31.9681 20.72C31.9681 21.9573 31.7467 23.0107 31.3041 23.88C30.8667 24.7493 30.1947 25.416 29.2881 25.88C28.3867 26.3387 27.2401 26.568 25.8481 26.568H22.8561V15ZM24.8321 16.608V24.96H25.8801C26.6747 24.96 27.3761 24.824 27.9841 24.552C28.5921 24.2747 29.0667 23.8267 29.4081 23.208C29.7547 22.5893 29.9281 21.7627 29.9281 20.728C29.9281 19.7253 29.7681 18.9227 29.4481 18.32C29.1281 17.7173 28.6694 17.2827 28.0721 17.016C27.4747 16.744 26.7601 16.608 25.9281 16.608H24.8321Z" fill="white"/>
<path d="M10.5 26.568L14.66 15H16.764L20.916 26.568H18.964L17.932 23.664H13.516L12.46 26.568H10.5ZM13.964 21.936H17.452L15.716 16.896L13.964 21.936Z" fill="white"/>
</svg>
