<svg width="18" height="22" viewBox="0 0 18 22" fill="none" xmlns="http://www.w3.org/2000/svg">
<path d="M14.75 20.9996H5.33594C4.71249 20.9989 4.11478 20.7509 3.67393 20.3101C3.23308 19.8692 2.9851 19.2715 2.98438 18.648V15.577C2.98438 15.4734 3.02553 15.374 3.09879 15.3007C3.17204 15.2275 3.2714 15.1863 3.375 15.1863C3.4786 15.1863 3.57796 15.2275 3.65121 15.3007C3.72447 15.374 3.76563 15.4734 3.76563 15.577V18.648C3.76614 19.0644 3.93175 19.4635 4.22613 19.7579C4.52051 20.0522 4.91962 20.2178 5.33594 20.2184H14.75C15.1664 20.2178 15.5655 20.0522 15.8599 19.7579C16.1544 19.4635 16.3201 19.0644 16.3207 18.648V15.1289C16.3207 15.0253 16.3619 14.9259 16.4351 14.8527C16.5084 14.7794 16.6077 14.7383 16.7113 14.7383C16.8149 14.7383 16.9143 14.7794 16.9875 14.8527C17.0608 14.9259 17.102 15.0253 17.102 15.1289V18.648C17.1011 19.2715 16.8531 19.8692 16.4121 20.3101C15.9712 20.7509 15.3735 20.9989 14.75 20.9996Z" fill="white" stroke="white" stroke-width="0.3"/>
<path d="M16.7098 14.4027C16.6062 14.4027 16.5068 14.3616 16.4335 14.2883C16.3603 14.2151 16.3191 14.1157 16.3191 14.0121V5.05664C16.3188 4.9459 16.2951 4.83647 16.2496 4.73551C16.2041 4.63454 16.1378 4.54431 16.0551 4.4707L13.2543 1.98125C13.1107 1.85286 12.925 1.78169 12.7324 1.78125H5.72655C5.20632 1.78208 4.70765 1.98918 4.33991 2.35715C3.97216 2.72512 3.76535 3.22391 3.76483 3.74414V8.50469C3.76483 8.60829 3.72368 8.70765 3.65042 8.7809C3.57716 8.85416 3.47781 8.89531 3.37421 8.89531C3.27061 8.89531 3.17125 8.85416 3.09799 8.7809C3.02474 8.70765 2.98358 8.60829 2.98358 8.50469V3.74414C2.9843 3.01677 3.27349 2.31939 3.78771 1.80495C4.30192 1.29052 4.99918 1.00103 5.72655 1H12.7324C13.1162 0.999926 13.4866 1.14073 13.7734 1.3957L16.5742 3.88555C16.7397 4.03263 16.8722 4.21311 16.9629 4.4151C17.0536 4.61709 17.1004 4.836 17.1004 5.05742V14.0121C17.1004 14.1157 17.0592 14.2151 16.986 14.2883C16.9127 14.3616 16.8134 14.4027 16.7098 14.4027Z" fill="white" stroke="white" stroke-width="0.3"/>
<path d="M16.6898 5.24023H14.3563C13.9408 5.23972 13.5424 5.07444 13.2487 4.78065C12.9549 4.48685 12.7896 4.08853 12.7891 3.67305V1.48047C12.7891 1.37687 12.8302 1.27751 12.9035 1.20426C12.9767 1.131 13.0761 1.08984 13.1797 1.08984C13.2833 1.08984 13.3826 1.131 13.4559 1.20426C13.5292 1.27751 13.5703 1.37687 13.5703 1.48047V3.67305C13.5705 3.88143 13.6534 4.08121 13.8007 4.22856C13.9481 4.37591 14.1479 4.45878 14.3563 4.45898H16.6898C16.7934 4.45898 16.8928 4.50014 16.9661 4.5734C17.0393 4.64665 17.0805 4.74601 17.0805 4.84961C17.0805 4.95321 17.0393 5.05257 16.9661 5.12582C16.8928 5.19908 16.7934 5.24023 16.6898 5.24023Z" fill="white" stroke="white" stroke-width="0.3"/>
<path d="M8.98867 14.0031C8.66132 14.0031 8.64062 13.9992 8.61054 13.9938C8.52068 13.9772 8.43946 13.9297 8.38101 13.8595C8.32256 13.7892 8.29057 13.7007 8.29062 13.6094V10.4688C8.29062 10.3651 8.33177 10.2658 8.40503 10.1925C8.47829 10.1193 8.57764 10.0781 8.68124 10.0781C8.78484 10.0781 8.8842 10.1193 8.95746 10.1925C9.03071 10.2658 9.07187 10.3651 9.07187 10.4688V13.2215C9.25585 13.2215 9.48476 13.2215 9.70078 13.2188H9.70312C9.80672 13.2184 9.9062 13.2593 9.97968 13.3323C10.0532 13.4054 10.0946 13.5046 10.0949 13.6082C10.0952 13.7118 10.0544 13.8113 9.98133 13.8848C9.9083 13.9582 9.80906 13.9997 9.70546 14C9.37304 14.0023 9.1457 14.0031 8.98867 14.0031Z" fill="white" stroke="white" stroke-width="0.3"/>
<path d="M12.3703 14.0028C11.8402 14.0028 11.3227 13.7809 10.9852 13.4087C10.9506 13.3707 10.9238 13.3263 10.9064 13.2779C10.889 13.2296 10.8813 13.1783 10.8837 13.1269C10.8862 13.0756 10.8988 13.0253 10.9207 12.9788C10.9427 12.9324 10.9735 12.8907 11.0116 12.8562C11.0497 12.8217 11.0942 12.795 11.1426 12.7777C11.191 12.7605 11.2423 12.7529 11.2936 12.7555C11.3449 12.7581 11.3952 12.7708 11.4417 12.7928C11.4881 12.8149 11.5297 12.8459 11.5641 12.8841C11.7559 13.0954 12.057 13.2216 12.3703 13.2216C12.675 13.2216 12.8902 13.0392 12.9215 12.8622C12.9637 12.6278 12.648 12.4829 12.5078 12.4325C12.0207 12.2528 11.5879 12.0602 11.5703 12.052C11.5515 12.0437 11.5333 12.0339 11.516 12.0227C11.3547 11.9185 11.2269 11.7699 11.1481 11.5948C11.0692 11.4197 11.0426 11.2255 11.0715 11.0356C11.1316 10.6169 11.4379 10.2755 11.8711 10.145C12.7305 9.88681 13.4336 10.4688 13.4645 10.4938C13.543 10.5605 13.5921 10.6556 13.6009 10.7583C13.6097 10.8609 13.5776 10.963 13.5115 11.0421C13.4454 11.1212 13.3508 11.171 13.2482 11.1806C13.1456 11.1902 13.0433 11.1589 12.9637 11.0934C12.9516 11.0841 12.5402 10.7591 12.0965 10.8931C11.8934 10.9544 11.8527 11.0907 11.8449 11.147C11.8385 11.1852 11.8424 11.2245 11.8561 11.2608C11.8698 11.2971 11.8929 11.3291 11.923 11.3536C12.0332 11.4017 12.3918 11.5571 12.7797 11.6997C13.5711 11.9919 13.7699 12.563 13.6918 13.0005C13.5867 13.5809 13.0312 14.0028 12.3703 14.0028Z" fill="white" stroke="white" stroke-width="0.3"/>
<path d="M7.1492 14.0028C7.08656 14.0029 7.02484 13.9879 6.96922 13.959C6.91361 13.9302 6.86575 13.8884 6.82967 13.8372L4.61834 10.6935C4.58885 10.6515 4.56791 10.6041 4.55673 10.554C4.54554 10.5039 4.54433 10.4521 4.55316 10.4016C4.562 10.3511 4.5807 10.3027 4.6082 10.2594C4.63571 10.2161 4.67147 10.1786 4.71346 10.1491C4.75545 10.1196 4.80283 10.0987 4.85291 10.0875C4.90299 10.0763 4.95478 10.0751 5.00533 10.084C5.05587 10.0928 5.10418 10.1115 5.1475 10.139C5.19082 10.1665 5.2283 10.2023 5.2578 10.2443L7.46873 13.3876C7.50983 13.4461 7.5341 13.5147 7.53889 13.5861C7.54368 13.6574 7.5288 13.7286 7.49589 13.7921C7.46298 13.8555 7.41328 13.9087 7.35222 13.9459C7.29116 13.9831 7.22107 14.0028 7.14959 14.0028H7.1492Z" fill="white" stroke="white" stroke-width="0.3"/>
<path d="M4.77852 14.0028C4.70701 14.0026 4.6369 13.9829 4.57583 13.9457C4.51476 13.9085 4.46508 13.8552 4.4322 13.7917C4.39932 13.7282 4.3845 13.6569 4.38936 13.5856C4.39422 13.5142 4.41858 13.4456 4.45977 13.3871L6.67422 10.2438C6.73389 10.1591 6.82477 10.1016 6.92685 10.0839C7.02893 10.0662 7.13386 10.0898 7.21856 10.1494C7.30325 10.2091 7.36077 10.3 7.37846 10.4021C7.39615 10.5041 7.37257 10.6091 7.31289 10.6938L5.09844 13.8371C5.06232 13.8884 5.0144 13.9302 4.95871 13.959C4.90303 13.9878 4.84122 14.0028 4.77852 14.0028Z" fill="white" stroke="white" stroke-width="0.3"/>
<path d="M2.96758 17.8359H2.36719C2.00459 17.8359 1.65684 17.6919 1.40044 17.4355C1.14404 17.1791 1 16.8314 1 16.4688C1 16.1061 1.14404 15.7584 1.40044 15.502C1.65684 15.2456 2.00459 15.1016 2.36719 15.1016H4.14141C4.24501 15.1016 4.34436 15.1427 4.41762 15.216C4.49088 15.2892 4.53203 15.3886 4.53203 15.4922C4.53203 15.5958 4.49088 15.6951 4.41762 15.7684C4.34436 15.8417 4.24501 15.8828 4.14141 15.8828H2.36719C2.21179 15.8828 2.06275 15.9445 1.95287 16.0544C1.84298 16.1643 1.78125 16.3133 1.78125 16.4688C1.78125 16.6242 1.84298 16.7732 1.95287 16.8831C2.06275 16.993 2.21179 17.0547 2.36719 17.0547H2.96875C3.07235 17.0547 3.17171 17.0958 3.24496 17.1691C3.31822 17.2424 3.35938 17.3417 3.35938 17.4453C3.35938 17.5489 3.31822 17.6483 3.24496 17.7215C3.17171 17.7948 3.07235 17.8359 2.96875 17.8359H2.96758Z" fill="white" stroke="white" stroke-width="0.3"/>
<path d="M1.39569 16.7465C1.29209 16.7465 1.19273 16.7053 1.11948 16.6321C1.04622 16.5588 1.00507 16.4595 1.00507 16.3559L1.02186 9.48086C1.02248 9.11866 1.1668 8.77152 1.42313 8.51563C1.67946 8.25974 2.02686 8.11601 2.38905 8.11602L16.7105 8.11328C16.8141 8.11328 16.9135 8.15444 16.9867 8.22769C17.06 8.30095 17.1012 8.40031 17.1012 8.50391V15.4918C17.1012 15.5954 17.06 15.6948 16.9867 15.768C16.9135 15.8413 16.8141 15.8824 16.7105 15.8824H2.77889C2.67529 15.8824 2.57594 15.8413 2.50268 15.768C2.42942 15.6948 2.38827 15.5954 2.38827 15.4918C2.38827 15.3882 2.42942 15.2888 2.50268 15.2156C2.57594 15.1423 2.67529 15.1012 2.77889 15.1012H16.3191V8.89219L2.38788 8.89492C2.23248 8.89492 2.08344 8.95665 1.97356 9.06654C1.86367 9.17642 1.80194 9.32546 1.80194 9.48086L1.78514 16.3559C1.78514 16.4593 1.74415 16.5584 1.67115 16.6317C1.59814 16.7049 1.49909 16.7462 1.39569 16.7465Z" fill="white" stroke="white" stroke-width="0.3"/>
</svg>
