<svg width="16" height="20" viewBox="0 0 16 20" fill="none" xmlns="http://www.w3.org/2000/svg">
<path d="M4.5 1L1 4L0.5 16L1 18.5L2.5 19.5H11.5L14.5 19L15.5 17.5V3.5L14.5 1L7.5 0.5L4.5 1Z" fill="#1B75BB"/>
<path d="M5.33105 9.33079C5.15369 9.33079 4.98359 9.26033 4.85818 9.13491C4.73276 9.0095 4.6623 8.8394 4.6623 8.66204V6.66204C4.6533 6.5692 4.66381 6.47552 4.69316 6.38699C4.72252 6.29846 4.77006 6.21705 4.83275 6.14799C4.89543 6.07893 4.97187 6.02375 5.05715 5.98598C5.14243 5.94822 5.23466 5.92871 5.32793 5.92871C5.4212 5.92871 5.51343 5.94822 5.59871 5.98598C5.68399 6.02375 5.76043 6.07893 5.82311 6.14799C5.8858 6.21705 5.93334 6.29846 5.9627 6.38699C5.99205 6.47552 6.00256 6.5692 5.99355 6.66204V8.66204C5.99356 8.83832 5.92396 9.00748 5.7999 9.13272C5.67583 9.25795 5.50733 9.32914 5.33105 9.33079Z" fill="white"/>
<path d="M7.9998 9.33093C7.82244 9.33093 7.65234 9.26048 7.52693 9.13506C7.40151 9.00965 7.33105 8.83955 7.33105 8.66218V5.99968C7.3471 5.83428 7.42416 5.68077 7.54721 5.56908C7.67026 5.45738 7.8305 5.39551 7.99668 5.39551C8.16286 5.39551 8.32309 5.45738 8.44615 5.56908C8.5692 5.68077 8.64626 5.83428 8.6623 5.99968V8.66843C8.66067 8.84363 8.59035 9.0112 8.46646 9.13509C8.34257 9.25898 8.17501 9.3293 7.9998 9.33093Z" fill="white"/>
<path d="M10.6689 9.33137C10.4916 9.33137 10.3215 9.26091 10.1961 9.1355C10.0707 9.01008 10.0002 8.83999 10.0002 8.66262V4.66887C9.99119 4.57604 10.0017 4.48235 10.0311 4.39383C10.0604 4.3053 10.108 4.22389 10.1706 4.15483C10.2333 4.08577 10.3098 4.03058 10.395 3.99282C10.4803 3.95506 10.5726 3.93555 10.6658 3.93555C10.7591 3.93555 10.8513 3.95506 10.9366 3.99282C11.0219 4.03058 11.0983 4.08577 11.161 4.15483C11.2237 4.22389 11.2712 4.3053 11.3006 4.39383C11.3299 4.48235 11.3405 4.57604 11.3314 4.66887V8.66887C11.3298 8.84407 11.2595 9.01164 11.1356 9.13553C11.0117 9.25942 10.8441 9.32974 10.6689 9.33137Z" fill="white"/>
<path d="M13.3313 20H2.66875C1.96096 20 1.28215 19.7188 0.781663 19.2183C0.281175 18.7179 3.99559e-06 18.039 3.99559e-06 17.3312V5.25C-0.000754185 4.7609 0.106397 4.27767 0.31382 3.83473C0.521243 3.3918 0.823828 3.00008 1.2 2.6875L3.5 0.775C4.09845 0.276291 4.85225 0.00218302 5.63125 0L13.3313 0C14.0391 0 14.7179 0.281171 15.2183 0.781659C15.7188 1.28215 16 1.96095 16 2.66875V17.3312C16 18.039 15.7188 18.7179 15.2183 19.2183C14.7179 19.7188 14.0391 20 13.3313 20ZM5.63125 1.33125C5.17406 1.33847 4.73304 1.50164 4.38125 1.79375L2.05 3.7125C1.82446 3.90011 1.6431 4.13518 1.51886 4.40095C1.39462 4.66672 1.33056 4.95663 1.33125 5.25V17.3312C1.3329 17.6838 1.47368 18.0215 1.72298 18.2708C1.97229 18.5201 2.30994 18.6609 2.6625 18.6625H13.3313C13.6838 18.6609 14.0215 18.5201 14.2708 18.2708C14.5201 18.0215 14.6609 17.6838 14.6625 17.3312V2.66875C14.6609 2.31619 14.5201 1.97853 14.2708 1.72923C14.0215 1.47993 13.6838 1.33914 13.3313 1.3375L5.63125 1.33125Z" fill="#1B75BB"/>
<path d="M11.9999 16.0004H3.99993C3.9071 16.0094 3.81341 15.9989 3.72488 15.9695C3.63635 15.9402 3.55494 15.8926 3.48588 15.8299C3.41682 15.7673 3.36164 15.6908 3.32387 15.6055C3.28611 15.5203 3.2666 15.428 3.2666 15.3348C3.2666 15.2415 3.28611 15.1493 3.32387 15.064C3.36164 14.9787 3.41682 14.9023 3.48588 14.8396C3.55494 14.7769 3.63635 14.7294 3.72488 14.7C3.81341 14.6706 3.9071 14.6601 3.99993 14.6691H11.9999C12.0928 14.6601 12.1864 14.6706 12.275 14.7C12.3635 14.7294 12.4449 14.7769 12.514 14.8396C12.583 14.9023 12.6382 14.9787 12.676 15.064C12.7137 15.1493 12.7333 15.2415 12.7333 15.3348C12.7333 15.428 12.7137 15.5203 12.676 15.6055C12.6382 15.6908 12.583 15.7673 12.514 15.8299C12.4449 15.8926 12.3635 15.9402 12.275 15.9695C12.1864 15.9989 12.0928 16.0094 11.9999 16.0004Z" fill="white"/>
<path d="M11.9997 12.6684H3.99968C3.83428 12.6523 3.68077 12.5753 3.56908 12.4522C3.45738 12.3292 3.39551 12.1689 3.39551 12.0027C3.39551 11.8366 3.45738 11.6763 3.56908 11.5533C3.68077 11.4302 3.83428 11.3532 3.99968 11.3371H11.9997C12.0925 11.3281 12.1862 11.3386 12.2747 11.368C12.3633 11.3973 12.4447 11.4449 12.5137 11.5076C12.5828 11.5702 12.638 11.6467 12.6757 11.732C12.7135 11.8172 12.733 11.9095 12.733 12.0027C12.733 12.096 12.7135 12.1882 12.6757 12.2735C12.638 12.3588 12.5828 12.4352 12.5137 12.4979C12.4447 12.5606 12.3633 12.6081 12.2747 12.6375C12.1862 12.6669 12.0925 12.6774 11.9997 12.6684Z" fill="white"/>
</svg>
