<svg width="17" height="16" viewBox="0 0 17 16" fill="none" xmlns="http://www.w3.org/2000/svg">
<path d="M16.3482 15.1295L12.2173 11.0646C13.299 9.88931 13.9637 8.33496 13.9637 6.62455C13.9632 2.96568 10.9495 0 7.23158 0C3.5137 0 0.5 2.96568 0.5 6.62455C0.5 10.2834 3.5137 13.2491 7.23158 13.2491C8.83796 13.2491 10.3113 12.6935 11.4686 11.7698L15.6156 15.8507C15.8176 16.0498 16.1457 16.0498 16.3477 15.8507C16.5503 15.6517 16.5503 15.3286 16.3482 15.1295ZM7.23158 12.2299C4.08585 12.2299 1.53575 9.72029 1.53575 6.62455C1.53575 3.52881 4.08585 1.01923 7.23158 1.01923C10.3773 1.01923 12.9274 3.52881 12.9274 6.62455C12.9274 9.72029 10.3773 12.2299 7.23158 12.2299Z" fill="#5F6368"/>
</svg>
