<svg width="23" height="20" viewBox="0 0 23 20" fill="none" xmlns="http://www.w3.org/2000/svg">
<path d="M14.9526 20H7.08904C6.05533 20 4.84148 19.2994 4.32534 18.4044L0.393538 11.596C-0.131179 10.6866 -0.131179 9.31408 0.393538 8.40405L4.32605 1.5956C4.84219 0.700575 6.05605 0 7.08975 0H14.9526C15.9863 0 17.2002 0.700575 17.7163 1.5956L21.6481 8.40405C22.1729 9.31336 22.1729 10.6859 21.6481 11.596L17.7156 18.4044C17.2002 19.2994 15.9856 20 14.9526 20ZM7.08904 1.42903C6.55646 1.42903 5.82943 1.84866 5.5635 2.30975L1.63098 9.1182C1.36505 9.5793 1.36505 10.4193 1.63098 10.8804L5.56278 17.6888C5.82943 18.1506 6.55646 18.5695 7.08832 18.5695H14.9526C15.4852 18.5695 16.2122 18.1499 16.4782 17.6888L20.4107 10.8804C20.6766 10.4193 20.6766 9.5793 20.4107 9.1182L16.4789 2.30975C16.2122 1.84795 15.4852 1.42903 14.9534 1.42903H7.08904ZM11.0208 14.2288C8.68821 14.2288 6.79094 12.3316 6.79094 9.99964C6.79094 7.66773 8.68821 5.77045 11.0208 5.77045C13.3535 5.77045 15.2507 7.66773 15.2507 9.99964C15.2507 12.3316 13.3535 14.2288 11.0208 14.2288ZM11.0208 7.2002C9.47671 7.2002 8.22068 8.45623 8.22068 9.99964C8.22068 11.5431 9.47671 12.7991 11.0208 12.7991C12.565 12.7991 13.821 11.5431 13.821 9.99964C13.821 8.45623 12.565 7.2002 11.0208 7.2002Z" fill="#5F6368"/>
</svg>
