<svg width="16" height="17" viewBox="0 0 16 17" fill="none" xmlns="http://www.w3.org/2000/svg">
<path id="Vector" fill-rule="evenodd" clip-rule="evenodd" d="M9.55886 1.01572C9.55886 1.01572 10.1162 2.63286 10.1162 2.6321C10.5799 2.83082 11.0175 3.08381 11.4208 3.38595L13.1004 3.06C13.2954 3.02206 13.4964 3.09126 13.6273 3.24085C14.3083 4.02225 14.8314 4.92795 15.1671 5.90876C15.2318 6.09705 15.1909 6.30543 15.0606 6.45572C15.0606 6.45572 13.9392 7.74688 13.9392 7.74615C13.9987 8.24697 13.9987 8.75303 13.9392 9.25312L15.0606 10.5443C15.1909 10.6946 15.2318 10.903 15.1671 11.0912C14.8314 12.0721 14.3083 12.9777 13.6273 13.7591C13.4964 13.9087 13.2954 13.9779 13.1004 13.94C13.1004 13.94 11.4208 13.614 11.4216 13.614C11.0175 13.9162 10.5791 14.1692 10.1162 14.3672L9.55886 15.9843C9.4941 16.1725 9.33411 16.3117 9.13913 16.3504C8.12184 16.5499 7.07551 16.5499 6.05819 16.3504C5.86321 16.3117 5.70322 16.1725 5.63846 15.9843C5.63846 15.9843 5.08108 14.3672 5.08108 14.3679C4.61743 14.1692 4.17988 13.9162 3.7765 13.614L2.09688 13.9401C1.9019 13.978 1.70097 13.9088 1.56999 13.7592C0.889041 12.9778 0.36589 12.0721 0.0302457 11.0913C-0.0345134 10.903 0.00643169 10.6946 0.13665 10.5443C0.13665 10.5443 1.25816 9.25315 1.25816 9.25388C1.19862 8.75303 1.19862 8.247 1.25816 7.74688L0.13668 6.45572C0.00646086 6.3054 -0.0344842 6.09702 0.0302457 5.90876C0.36589 4.92792 0.889041 4.02225 1.56996 3.24082C1.70094 3.09123 1.90187 3.02203 2.09685 3.06C2.09685 3.06 3.77647 3.38595 3.77574 3.38595C4.17985 3.08381 4.61816 2.83079 5.08105 2.63283L5.63843 1.01572C5.70319 0.827458 5.86318 0.68828 6.05816 0.649582C7.07545 0.450139 8.12178 0.450139 9.1391 0.649582C9.33411 0.68828 9.4941 0.827429 9.55886 1.01572ZM7.59866 5.20998C5.78284 5.20998 4.30858 6.68421 4.30858 8.50006C4.30858 10.3159 5.78281 11.7901 7.59866 11.7901C9.41451 11.7901 10.8887 10.3159 10.8887 8.50003C10.8887 6.68421 9.41448 5.20998 7.59866 5.20998ZM7.59866 6.32626C8.7983 6.32626 9.77242 7.30042 9.77242 8.50003C9.77242 9.69963 8.7983 10.6738 7.59866 10.6738C6.39903 10.6738 5.42489 9.69966 5.42489 8.50003C5.42489 7.3004 6.39903 6.32626 7.59866 6.32626Z" fill="#202124"/>
</svg>
