<svg width="25" height="22" viewBox="0 0 25 22" fill="none" xmlns="http://www.w3.org/2000/svg">
<path d="M17.5501 21H3.08789C2.41336 21 1.80015 20.6887 1.40392 20.1415C1.0077 19.5991 0.89449 18.9151 1.10204 18.2783L2.62562 13.5236C2.88034 12.7264 3.43694 12.0896 4.19638 11.7264C4.95581 11.3632 5.80487 11.3302 6.58789 11.6368C7.73411 12.0802 8.98883 12.3066 10.319 12.3066C11.6492 12.3066 12.9039 12.0802 14.0501 11.6368C14.8332 11.3349 15.6822 11.3632 16.4417 11.7264C17.1964 12.0849 17.753 12.7264 18.0077 13.5236L19.5313 18.2783C19.7388 18.9198 19.6256 19.5991 19.2294 20.1415C18.8379 20.6887 18.2247 21 17.5501 21ZM5.49355 11.9057C5.12091 11.9057 4.74826 11.9906 4.39921 12.1557C3.76241 12.4623 3.29072 13 3.07845 13.6698L1.55015 18.4245C1.38977 18.9198 1.47468 19.4481 1.78128 19.8679C2.08789 20.2877 2.5643 20.5283 3.08317 20.5283H17.5407C18.0596 20.5283 18.536 20.2877 18.8426 19.8679C19.1492 19.4481 19.2341 18.9198 19.0737 18.4245L17.5501 13.6698C17.3332 12.9953 16.8662 12.4575 16.2294 12.1557C15.5879 11.8491 14.8709 11.8255 14.2105 12.0802C13.0124 12.5472 11.6964 12.783 10.3096 12.783C8.92279 12.783 7.60675 12.5472 6.40864 12.0802C6.11619 11.9623 5.80487 11.9057 5.49355 11.9057ZM10.319 11.0047C7.55958 11.0047 5.3143 8.75943 5.3143 6C5.3143 3.24057 7.55958 1 10.319 1C13.0785 1 15.3237 3.24528 15.3237 6.00472C15.3237 8.76415 13.0785 11.0047 10.319 11.0047ZM10.319 1.4717C7.81902 1.4717 5.786 3.50472 5.786 6.00472C5.786 8.50472 7.81902 10.5377 10.319 10.5377C12.819 10.5377 14.852 8.50472 14.852 6.00472C14.852 3.50472 12.819 1.4717 10.319 1.4717ZM21.0926 12.1415H20.2247C19.8143 12.1415 19.4841 11.8066 19.4841 11.4009V11.0142C19.2152 10.9057 18.9605 10.7594 18.7294 10.5802L18.3945 10.7736C18.0407 10.9764 17.5879 10.8585 17.3803 10.5L16.9464 9.75C16.7435 9.39623 16.8615 8.9434 17.22 8.73585L17.5549 8.54245C17.536 8.39623 17.5266 8.25472 17.5266 8.10849C17.5266 7.96226 17.536 7.82076 17.5549 7.67453L17.22 7.48113C17.0501 7.38208 16.9275 7.2217 16.8756 7.0283C16.8237 6.83491 16.852 6.63679 16.9511 6.46698L17.3851 5.71698C17.5879 5.36321 18.0454 5.24057 18.3992 5.4434L18.7341 5.63679C18.9652 5.45755 19.2152 5.31132 19.4888 5.20283V4.82075C19.4888 4.41038 19.819 4.08019 20.2294 4.08019H21.0973C21.5077 4.08019 21.8379 4.41509 21.8379 4.82075V5.20755C22.1068 5.31604 22.3615 5.46226 22.5926 5.64151L22.9275 5.44811C23.0973 5.34906 23.3001 5.32075 23.4888 5.37264C23.6775 5.42453 23.8426 5.54717 23.9369 5.71698L24.3709 6.46698C24.47 6.63679 24.4983 6.83962 24.4464 7.0283C24.3945 7.2217 24.2718 7.37736 24.102 7.48113L23.7671 7.67453C23.786 7.82076 23.7954 7.96226 23.7954 8.10849C23.7954 8.25472 23.786 8.39623 23.7671 8.54245L24.102 8.73585C24.4558 8.93868 24.5785 9.39623 24.3756 9.75L23.9417 10.5C23.8426 10.6698 23.6822 10.7925 23.4935 10.8443C23.3049 10.8962 23.102 10.8679 22.9322 10.7689L22.5973 10.5755C22.3662 10.7547 22.1162 10.9009 21.8426 11.0094V11.3962C21.8332 11.8113 21.503 12.1415 21.0926 12.1415ZM18.7577 10.0566C18.8143 10.0566 18.8709 10.0755 18.9134 10.1132C19.1728 10.3396 19.4747 10.5142 19.8001 10.6274C19.8945 10.6604 19.9605 10.75 19.9605 10.8491V11.3962C19.9605 11.5472 20.0832 11.6651 20.2294 11.6651H21.0973C21.2483 11.6651 21.3662 11.5425 21.3662 11.3962V10.8491C21.3662 10.75 21.4322 10.6604 21.5266 10.6274C21.852 10.5142 22.1492 10.3443 22.4134 10.1132C22.4888 10.0472 22.5973 10.0377 22.6869 10.0849L23.1634 10.3585C23.2907 10.434 23.4558 10.3868 23.5313 10.2594L23.9652 9.50943C24.0407 9.38208 23.9935 9.21698 23.8662 9.14151L23.3898 8.86792C23.3001 8.81604 23.2577 8.71698 23.2766 8.61792C23.3096 8.44811 23.3237 8.2783 23.3237 8.10377C23.3237 7.92925 23.3049 7.75943 23.2766 7.58962C23.2577 7.49057 23.3049 7.39151 23.3898 7.33962L23.8662 7.06604C23.9275 7.0283 23.9747 6.9717 23.9935 6.90094C24.0124 6.83019 24.003 6.75943 23.9652 6.69811L23.5313 5.94811C23.4935 5.88679 23.4369 5.83962 23.3662 5.82075C23.2954 5.80189 23.2247 5.81132 23.1634 5.84906L22.6869 6.12264C22.5973 6.17453 22.4888 6.16038 22.4134 6.09434C22.1539 5.86792 21.852 5.6934 21.5266 5.58491C21.4322 5.55189 21.3662 5.46226 21.3662 5.36321V4.82075C21.3662 4.66981 21.2435 4.55189 21.0973 4.55189H20.2294C20.0785 4.55189 19.9605 4.67453 19.9605 4.82075V5.36792C19.9605 5.46698 19.8945 5.5566 19.8001 5.58962C19.4747 5.70283 19.1775 5.87264 18.9134 6.09906C18.8379 6.16509 18.7294 6.17453 18.6398 6.12736L18.1634 5.85377C18.102 5.81604 18.0266 5.8066 17.9605 5.82547C17.8898 5.84434 17.8332 5.88679 17.7954 5.95283L17.3615 6.70283C17.3237 6.76415 17.3143 6.83962 17.3332 6.90566C17.352 6.9717 17.3945 7.03302 17.4605 7.07075L17.9369 7.34434C18.0266 7.39623 18.069 7.49528 18.0502 7.59434C18.0171 7.76415 18.003 7.93396 18.003 8.10849C18.003 8.28302 18.0218 8.45283 18.0502 8.62264C18.069 8.7217 18.0218 8.82075 17.9369 8.87264L17.4605 9.14623C17.3992 9.18396 17.352 9.24057 17.3332 9.31132C17.3143 9.38208 17.3237 9.45283 17.3615 9.51415L17.7954 10.2642C17.8709 10.3915 18.036 10.4387 18.1634 10.3632L18.6398 10.0896C18.6775 10.0708 18.7152 10.0613 18.7577 10.0566ZM20.6586 9.60849C19.8332 9.60849 19.1634 8.93868 19.1634 8.11321C19.1634 7.28774 19.8332 6.61321 20.6586 6.61321C21.4841 6.61321 22.1539 7.28302 22.1539 8.10849C22.1539 8.93396 21.4841 9.60849 20.6586 9.60849ZM20.6586 7.08491C20.0926 7.08491 19.6351 7.54245 19.6351 8.10849C19.6351 8.67453 20.0926 9.13208 20.6586 9.13208C21.2247 9.13208 21.6822 8.67453 21.6822 8.10849C21.6822 7.54245 21.2247 7.08491 20.6586 7.08491Z" fill="#5F6368" stroke="#5F6368" stroke-width="0.7"/>
</svg>
