<svg width="262" height="257" viewBox="0 0 262 257" fill="none" xmlns="http://www.w3.org/2000/svg">
<path d="M38.3696 236.625C89.5285 263.791 172.473 263.792 223.631 236.625C274.79 209.458 274.79 165.412 223.631 138.246C172.473 111.079 89.5278 111.079 38.369 138.245C-12.7898 165.411 -12.7898 209.458 38.3696 236.625Z" fill="#F5F5F5"/>
<path d="M127.924 207.949L130.279 209.33C131.021 209.765 132.223 209.765 132.965 209.33L195.807 172.468C196.549 172.033 196.549 171.326 195.807 170.892L193.453 169.51C192.711 169.075 191.509 169.075 190.767 169.51L127.923 206.373C127.182 206.808 127.182 207.514 127.924 207.949Z" fill="#E0E0E0"/>
<path d="M230.307 202.765C222.526 206.994 209.91 206.994 202.129 202.765C194.348 198.536 194.348 191.68 202.129 187.45C209.91 183.222 222.526 183.222 230.307 187.45C238.089 191.68 238.089 198.536 230.307 202.765Z" fill="#E0E0E0"/>
<path d="M225.504 177.445C225.504 177.445 226.221 171.036 229.358 166.063C232.496 161.089 236.807 157.985 240.829 157.662C244.852 157.339 248.101 161.099 243.797 163.681C239.493 166.263 231.846 168.898 228.327 178.555L225.504 177.445Z" fill="#27DEBF"/>
<path opacity="0.1" d="M225.504 177.445C225.504 177.445 226.221 171.036 229.358 166.063C232.496 161.089 236.807 157.985 240.829 157.662C244.852 157.339 248.101 161.099 243.797 163.681C239.493 166.263 231.846 168.898 228.327 178.555L225.504 177.445Z" fill="black"/>
<path d="M226.68 175.78C226.666 175.777 226.652 175.773 226.638 175.767C226.528 175.722 226.475 175.594 226.52 175.483C230.765 164.861 238.846 160.426 242.526 159.565C242.641 159.538 242.756 159.612 242.783 159.729C242.81 159.847 242.738 159.964 242.622 159.991C239.017 160.834 231.095 165.192 226.917 175.647C226.878 175.744 226.778 175.798 226.68 175.78Z" fill="white"/>
<path d="M248.163 175.905C247.799 176.739 246.903 177.173 246.069 177.515C245.239 177.854 244.33 178.222 243.879 179.012C242.971 180.605 244.462 182.845 243.487 184.396C243.078 185.047 242.317 185.389 241.569 185.526C240.948 185.644 240.315 185.643 239.685 185.697C239.381 185.691 239.082 185.668 238.789 185.626C237.924 185.499 236.986 185.458 236.194 185.908C234.947 186.619 234.565 188.218 233.808 189.451C232.9 190.927 231.295 191.894 229.61 192.127C229.049 192.202 228.008 192.305 227.437 191.981C227.393 191.956 227.355 191.933 227.319 191.905C227.316 191.904 227.312 191.899 227.309 191.895C227.231 191.806 227.132 191.691 227.09 191.629C227.079 191.619 227.074 191.605 227.068 191.592C226.847 190.765 227.207 189.905 227.221 189.053C227.223 188.998 227.224 188.949 227.22 188.898C227.185 187.906 227.158 186.92 227.135 185.93C227.09 184.11 227.069 182.285 227.082 180.462C227.094 179.278 226.954 177.983 227.447 176.868C227.993 175.642 229.35 175.614 229.863 174.411C230.068 173.931 230.177 173.418 230.376 172.932C230.97 171.51 232.407 170.487 233.929 170.412C236.298 170.289 238.425 172.239 240.792 172.062C241.405 172.013 242.002 171.823 242.606 171.71C244.525 171.345 246.743 171.9 247.823 173.551C248.275 174.239 248.493 175.148 248.163 175.905Z" fill="#27DEBF"/>
<path d="M226.877 187.799C226.871 187.797 226.866 187.796 226.861 187.795C226.753 187.766 226.689 187.653 226.718 187.543C229.992 175.063 242.934 173.26 245.962 173.482C246.072 173.491 246.157 173.589 246.149 173.702C246.141 173.815 246.044 173.9 245.933 173.892C242.971 173.675 230.312 175.439 227.109 187.65C227.081 187.754 226.98 187.818 226.877 187.799Z" fill="white"/>
<path d="M241.255 181.475C241.216 181.467 241.178 181.448 241.149 181.417C241.116 181.384 237.815 178.078 232.341 178.896C232.231 178.912 232.128 178.835 232.112 178.723C232.095 178.611 232.172 178.506 232.282 178.49C237.968 177.641 241.402 181.093 241.436 181.128C241.515 181.209 241.513 181.339 241.435 181.419C241.385 181.468 241.318 181.487 241.255 181.475Z" fill="white"/>
<path d="M140.618 118.121V124.4L33.5443 187.2V187.206L30.2496 189.135C28.8597 188.322 27.7305 186.248 27.7305 184.508V78.7341C27.7305 78.5576 27.7925 78.3685 27.8856 78.1983C27.9849 78.0281 28.1214 77.8768 28.2703 77.7886L52.6733 63.4723C52.9711 63.3021 54.7084 64.0396 54.9938 64.2161L55.18 64.3233C55.3227 64.4116 55.4778 64.5503 55.6081 64.7079C55.7508 64.8781 55.8687 65.0609 55.9183 65.2311L58.1272 71.7115L137.559 23.6376C137.845 23.4737 138.304 23.4674 138.602 23.6187L140.079 24.4886C140.227 24.5769 140.358 24.7219 140.457 24.8921C140.556 25.0623 140.612 25.2577 140.612 25.4342V47.5233L140.618 118.121Z" fill="#263238"/>
<path d="M140.615 124.4L30.2461 189.136V79.5794L55.6046 64.7083C55.7473 64.8785 55.8652 65.0614 55.9148 65.2316L58.1237 71.712L58.5456 72.9413L140.454 24.8926C140.553 25.0628 140.609 25.2582 140.609 25.4347L140.615 124.4Z" fill="#37474F"/>
<path d="M55.6053 64.7078L30.2468 79.5788L27.8828 78.1976C27.9821 78.0274 28.1186 77.8761 28.2675 77.7879L52.6705 63.4716C52.9683 63.3014 53.4461 63.3014 53.7315 63.4779L55.1772 64.3233C55.3199 64.4115 55.475 64.5502 55.6053 64.7078Z" fill="#455A64"/>
<path d="M140.455 24.8922L58.5469 72.941L58.125 71.7117L137.557 23.6371C137.843 23.4732 138.302 23.4669 138.6 23.6182L140.076 24.4888C140.225 24.577 140.356 24.722 140.455 24.8922Z" fill="#455A64"/>
<path d="M64.1552 144.586C63.5236 144.216 63.0117 143.275 63.0117 142.485V38.3062C63.0117 37.5163 63.5577 36.5556 64.2309 36.161L124.802 0.668444C125.475 0.273817 126.533 0.253644 127.165 0.624317C127.797 0.994989 128.309 1.93554 128.309 2.72542L128.309 106.905C128.309 107.694 127.763 108.655 127.09 109.05L66.518 144.542C65.8448 144.937 64.7869 144.956 64.1552 144.586Z" fill="#FAFAFA"/>
<path d="M66.5206 144.541L127.093 109.049C127.766 108.654 128.312 107.694 128.312 106.904L128.311 2.72455C128.311 1.93467 127.765 1.61443 127.092 2.00968L66.52 37.5022C65.8468 37.8968 65.3008 38.8575 65.3008 39.6474L65.3014 143.827C65.3014 144.616 65.8474 144.937 66.5206 144.541Z" fill="#F0F0F0"/>
<path d="M73.1573 41.6378L118.894 14.8088C119.488 14.4608 119.968 14.7426 119.968 15.4392V15.8741C119.968 16.5707 119.488 17.4173 118.894 17.7653L73.1561 44.5943C72.5629 44.9423 72.0814 44.6599 72.082 43.9639V43.5289C72.082 42.833 72.5635 41.9864 73.1573 41.6378Z" fill="#E0E0E0"/>
<path d="M73.1573 49.0219L118.894 22.1929C119.488 21.8449 119.968 22.1274 119.968 22.8233V23.2589C119.968 23.9549 119.488 24.8021 118.894 25.1501L73.1561 51.9791C72.5629 52.3271 72.0814 52.0453 72.082 51.3487V50.9137C72.082 50.2165 72.5635 49.3699 73.1573 49.0219Z" fill="#E0E0E0"/>
<path d="M73.1573 56.4048L118.894 29.5759C119.488 29.2279 119.968 29.5097 119.968 30.2062V30.6412C119.968 31.3378 119.488 32.1844 118.894 32.5324L73.1561 59.3614C72.5629 59.7094 72.0814 59.4276 72.082 58.731V58.296C72.082 57.6001 72.5635 56.7535 73.1573 56.4048Z" fill="#E0E0E0"/>
<path d="M73.1573 63.7886L118.894 36.9596C119.488 36.6117 119.968 36.8935 119.968 37.59V38.025C119.968 38.7216 119.488 39.5682 118.894 39.9162L73.1561 66.7452C72.5629 67.0932 72.0814 66.8114 72.082 66.1148V65.6798C72.082 64.9832 72.5635 64.1366 73.1573 63.7886Z" fill="#E0E0E0"/>
<path d="M73.1573 71.1719L118.894 44.3429C119.488 43.995 119.968 44.2768 119.968 44.9733V45.4083C119.968 46.1049 119.488 46.9515 118.894 47.2995L73.1561 74.1285C72.5629 74.4765 72.0814 74.1947 72.082 73.4981V73.0631C72.082 72.3672 72.5635 71.5205 73.1573 71.1719Z" fill="#E0E0E0"/>
<path d="M73.1573 78.6094L118.894 51.7804C119.488 51.4325 119.968 51.7143 119.968 52.4108V52.8458C119.968 53.5424 119.488 54.389 118.894 54.737L73.1561 81.566C72.5629 81.914 72.0814 81.6322 72.082 80.9356V80.5006C72.082 79.8047 72.5635 78.958 73.1573 78.6094Z" fill="#E0E0E0"/>
<path d="M73.1573 85.9932L118.894 59.1642C119.488 58.8163 119.968 59.098 119.968 59.7946V60.2296C119.968 60.9262 119.488 61.7728 118.894 62.1208L73.1561 88.9498C72.5629 89.2977 72.0814 89.0153 72.082 88.3194V87.8844C72.082 87.1878 72.5635 86.3412 73.1573 85.9932Z" fill="#E0E0E0"/>
<path d="M73.1573 93.376L118.894 66.547C119.488 66.1991 119.968 66.4809 119.968 67.1774V67.613C119.968 68.3096 119.488 69.1563 118.894 69.5042L73.1561 96.3332C72.5629 96.6812 72.0814 96.3994 72.082 95.7028V95.2679C72.082 94.5713 72.5635 93.7246 73.1573 93.376Z" fill="#E0E0E0"/>
<path d="M73.1573 100.76L118.894 73.9308C119.488 73.5829 119.968 73.8646 119.968 74.5612V74.9962C119.968 75.6928 119.488 76.5394 118.894 76.8874L73.1561 103.716C72.5629 104.064 72.0814 103.783 72.082 103.086V102.651C72.082 101.954 72.5635 101.108 73.1573 100.76Z" fill="#E0E0E0"/>
<path d="M73.1573 108.143L118.894 81.3141C119.488 80.9662 119.968 81.2479 119.968 81.9445V82.3795C119.968 83.0761 119.488 83.9227 118.894 84.2707L73.1561 111.1C72.5629 111.448 72.0814 111.166 72.082 110.469V110.034C72.082 109.338 72.5635 108.491 73.1573 108.143Z" fill="#E0E0E0"/>
<path d="M73.1573 115.559L118.894 88.7301C119.488 88.3822 119.968 88.664 119.968 89.3605V89.7961C119.968 90.4921 119.488 91.3394 118.894 91.6873L73.1561 118.516C72.5629 118.864 72.0814 118.583 72.082 117.886V117.451C72.082 116.754 72.5635 115.908 73.1573 115.559Z" fill="#E0E0E0"/>
<path d="M73.1573 122.943L118.894 96.1139C119.488 95.766 119.968 96.0477 119.968 96.7443V97.1793C119.968 97.8759 119.488 98.7225 118.894 99.0705L73.1561 125.899C72.5629 126.247 72.0814 125.966 72.082 125.269V124.834C72.082 124.138 72.5635 123.291 73.1573 122.943Z" fill="#E0E0E0"/>
<path d="M73.1573 130.326L118.894 103.497C119.488 103.149 119.968 103.432 119.968 104.128V104.563C119.968 105.26 119.488 106.106 118.894 106.454L73.1561 133.283C72.5629 133.631 72.0814 133.349 72.082 132.653V132.218C72.082 131.521 72.5635 130.674 73.1573 130.326Z" fill="#E0E0E0"/>
<path d="M66.36 144.623C65.6898 144.939 64.7405 144.932 64.1573 144.585C63.5244 144.214 63.0156 143.274 63.0156 142.486V38.3084C63.0156 37.9113 63.1521 37.4763 63.3693 37.0854L65.6588 38.4282C65.4355 38.8127 65.299 39.254 65.299 39.6449V143.829C65.2996 144.554 65.7649 144.882 66.36 144.623Z" fill="#E0E0E0"/>
<path d="M72.7373 149.528C72.1056 149.158 71.5938 148.217 71.5938 147.427V43.2481C71.5938 42.4582 72.1398 41.4975 72.813 41.1029L133.384 5.61034C134.057 5.21571 135.115 5.19554 135.747 5.56621C136.379 5.93688 136.891 6.87743 136.891 7.66732L136.891 111.846C136.891 112.636 136.345 113.597 135.672 113.992L75.1 149.484C74.4268 149.879 73.3689 149.898 72.7373 149.528Z" fill="#FAFAFA"/>
<path d="M75.0987 149.485L135.671 113.992C136.344 113.598 136.89 112.637 136.89 111.847L136.889 7.66791C136.889 6.87803 136.343 6.55778 135.67 6.95304L75.0981 42.4456C74.4249 42.8402 73.8789 43.8009 73.8789 44.5908L73.8795 148.77C73.8795 149.559 74.4255 149.879 75.0987 149.485Z" fill="#F0F0F0"/>
<path d="M81.7393 46.5806L127.476 19.7516C128.07 19.4037 128.551 19.6854 128.551 20.382V20.817C128.551 21.5136 128.07 22.3602 127.476 22.7082L81.7381 49.5372C81.1443 49.8852 80.6634 49.6034 80.6641 48.9068V48.4718C80.6641 47.7752 81.1455 46.9286 81.7393 46.5806Z" fill="#E0E0E0"/>
<path d="M81.7393 53.9638L127.476 27.1348C128.07 26.7868 128.551 27.0693 128.551 27.7652V28.2002C128.551 28.8968 128.07 29.7434 127.476 30.0914L81.7381 56.9204C81.1443 57.2683 80.6634 56.9866 80.6641 56.29V55.855C80.6641 55.159 81.1455 54.3118 81.7393 53.9638Z" fill="#E0E0E0"/>
<path d="M81.7393 61.3477L127.476 34.5187C128.07 34.1707 128.551 34.4525 128.551 35.1491V35.5841C128.551 36.28 128.07 37.1273 127.476 37.4753L81.7381 64.3043C81.1443 64.6522 80.6634 64.3705 80.6641 63.6739V63.2389C80.6641 62.5423 81.1455 61.6957 81.7393 61.3477Z" fill="#E0E0E0"/>
<path d="M81.7393 68.731L127.476 41.902C128.07 41.554 128.551 41.8358 128.551 42.5324V42.9674C128.551 43.664 128.07 44.5106 127.476 44.8586L81.7381 71.6876C81.1443 72.0355 80.6634 71.7531 80.6641 71.0572V70.6222C80.6641 69.9262 81.1455 69.079 81.7393 68.731Z" fill="#E0E0E0"/>
<path d="M81.7393 76.1147L127.476 49.2857C128.07 48.9377 128.551 49.2201 128.551 49.9161V50.3517C128.551 51.0483 128.07 51.8949 127.476 52.2429L81.7381 79.0719C81.1443 79.4199 80.6634 79.1381 80.6641 78.4415V78.0065C80.6641 77.3093 81.1455 76.4627 81.7393 76.1147Z" fill="#E0E0E0"/>
<path d="M81.7393 83.5518L127.476 56.7228C128.07 56.3748 128.551 56.6566 128.551 57.3532V57.7882C128.551 58.4848 128.07 59.3314 127.476 59.6794L81.7381 86.5084C81.1443 86.8563 80.6634 86.5746 80.6641 85.878V85.443C80.6641 84.7464 81.1455 83.8998 81.7393 83.5518Z" fill="#E0E0E0"/>
<path d="M81.7393 90.9351L127.476 64.1061C128.07 63.7581 128.551 64.0399 128.551 64.7365V65.1715C128.551 65.8681 128.07 66.7147 127.476 67.0627L81.7381 93.8917C81.1443 94.2396 80.6634 93.9579 80.6641 93.2613V92.8263C80.6641 92.1297 81.1455 91.2831 81.7393 90.9351Z" fill="#E0E0E0"/>
<path d="M81.7393 98.3179L127.476 71.4889C128.07 71.141 128.551 71.4227 128.551 72.1193V72.5543C128.551 73.2509 128.07 74.0975 127.476 74.4455L81.7381 101.274C81.1443 101.622 80.6634 101.341 80.6641 100.644V100.209C80.6641 99.5132 81.1455 98.6665 81.7393 98.3179Z" fill="#E0E0E0"/>
<path d="M81.7393 105.702L127.476 78.8727C128.07 78.5247 128.551 78.8065 128.551 79.5031V79.9387C128.551 80.6347 128.07 81.4819 127.476 81.8299L81.7381 108.659C81.1443 109.007 80.6634 108.725 80.6641 108.029V107.594C80.6641 106.896 81.1455 106.05 81.7393 105.702Z" fill="#E0E0E0"/>
<path d="M81.7393 113.085L127.476 86.256C128.07 85.9081 128.551 86.1898 128.551 86.8864V87.3214C128.551 88.018 128.07 88.8646 127.476 89.2126L81.7381 116.042C81.1443 116.39 80.6634 116.107 80.6641 115.411V114.976C80.6641 114.28 81.1455 113.434 81.7393 113.085Z" fill="#E0E0E0"/>
<path d="M81.7393 120.501L127.476 93.672C128.07 93.3241 128.551 93.6059 128.551 94.3024V94.7374C128.551 95.434 128.07 96.2806 127.476 96.6286L81.7381 123.458C81.1443 123.806 80.6634 123.524 80.6641 122.827V122.392C80.6641 121.696 81.1455 120.85 81.7393 120.501Z" fill="#E0E0E0"/>
<path d="M81.7393 127.885L127.476 101.056C128.07 100.708 128.551 100.99 128.551 101.686V102.121C128.551 102.818 128.07 103.664 127.476 104.012L81.7381 130.841C81.1443 131.189 80.6634 130.907 80.6641 130.211V129.776C80.6641 129.079 81.1455 128.233 81.7393 127.885Z" fill="#E0E0E0"/>
<path d="M81.7393 135.268L127.476 108.439C128.07 108.091 128.551 108.373 128.551 109.07V109.505C128.551 110.201 128.07 111.048 127.476 111.396L81.7381 138.225C81.1443 138.573 80.6634 138.291 80.6641 137.594V137.159C80.6641 136.463 81.1455 135.617 81.7393 135.268Z" fill="#E0E0E0"/>
<path d="M74.9381 149.565C74.268 149.88 73.3187 149.874 72.7354 149.527C72.1025 149.155 71.5938 148.216 71.5938 147.428V43.2508C71.5938 42.8537 71.7303 42.4187 71.9474 42.0278L74.2369 43.3706C74.0136 43.7551 73.8771 44.1964 73.8771 44.5872V148.771C73.8777 149.496 74.343 149.824 74.9381 149.565Z" fill="#E0E0E0"/>
<path d="M163.156 37.79L145.461 115.644L143.829 122.805C143.444 124.501 141.93 126.581 140.447 127.451L35.4518 189.041C34.7569 189.45 33.8634 189.677 32.9699 189.715C31.9772 189.759 30.9782 189.57 30.2461 189.135L30.7859 186.759C30.8045 186.683 30.8231 186.607 30.8417 186.525L31.4312 183.922L33.9999 172.625L50.2686 101.05C50.2872 100.962 50.3244 100.874 50.3679 100.785C50.4113 100.703 50.4609 100.621 50.5106 100.546C50.5168 100.533 50.5292 100.521 50.5354 100.508C50.6595 100.344 50.8022 100.205 50.9449 100.117L140.609 47.5233L160.234 36.0123C160.532 35.8358 161.016 35.8358 161.314 36.0123L162.759 36.857C163.051 37.0335 163.231 37.4496 163.156 37.79Z" fill="#37474F"/>
<path d="M163.179 37.6324C163.166 37.4117 163.005 37.3424 162.763 37.4874L53.4677 101.599C53.325 101.681 53.176 101.826 53.0582 101.989L50.5391 100.508C50.6632 100.344 50.8059 100.205 50.9486 100.117L160.238 36.0123C160.536 35.8358 161.02 35.8358 161.317 36.0123L162.763 36.857C163.011 37.0083 163.179 37.3298 163.179 37.6324Z" fill="#455A64"/>
<path d="M53.0545 101.989C52.98 102.09 52.918 102.197 52.8683 102.298C52.8311 102.38 52.8063 102.456 52.7877 102.525L37.2326 170.973H37.2264L33.9503 185.397L33.5408 187.2V187.206L32.9699 189.715C31.9772 189.759 30.9782 189.57 30.2461 189.135L30.7859 186.758C30.8045 186.683 30.8231 186.607 30.8417 186.525L31.4312 183.922L33.9999 172.625L50.2686 101.05C50.2872 100.962 50.3244 100.873 50.3679 100.785C50.4113 100.703 50.4609 100.621 50.5106 100.546C50.5168 100.533 50.5292 100.52 50.5354 100.508L53.0545 101.989Z" fill="#263238"/>
<path d="M34.0989 182.525C34.3651 182.681 34.4992 182.995 34.4303 183.299L33.5443 187.2V187.206L33.0994 189.162C33.0231 189.498 32.7184 189.731 32.379 189.714C31.5916 189.674 30.8353 189.484 30.2496 189.136C28.8597 188.323 27.7305 186.249 27.7305 184.509V180.02C27.7305 179.473 28.3125 179.132 28.7784 179.405L29.9009 180.064C30.1168 180.191 30.2496 180.426 30.2496 180.68V182.911C30.2496 183.756 31.4415 183.894 31.6283 183.07L31.8156 182.245C31.9211 181.78 32.4392 181.552 32.8456 181.791L34.0989 182.525Z" fill="#263238"/>
<path d="M57.2795 165.887L51.3038 162.383C51.3038 162.383 51.2976 162.383 51.2914 162.383L51.2293 162.345L51.2231 162.358C48.2517 160.653 44.1783 160.905 39.665 163.553C35.4428 166.025 31.5928 170.151 28.689 174.925C25.3335 180.422 23.2227 186.787 23.2227 192.492C23.2227 197.813 25.0549 201.55 28.0207 203.298V203.304L28.0393 203.31L34.1063 206.831C37.1025 208.771 41.3329 208.6 46.0255 205.847C55.1085 200.519 62.4722 187.562 62.4728 176.906C62.4728 171.357 60.4743 167.533 57.2795 165.887Z" fill="#27DEBF"/>
<path opacity="0.1" d="M33.9878 206.762L28.0375 203.308L28.0189 203.301V203.295C25.053 201.549 23.2227 197.811 23.2227 192.49C23.2227 186.785 25.3322 180.424 28.689 174.927L35.0364 178.647C31.6796 184.144 29.5762 190.498 29.5762 196.197C29.5756 201.284 31.2509 204.921 33.9878 206.762Z" fill="black"/>
<path opacity="0.4" d="M57.1546 165.818C54.226 164.375 50.317 164.741 46.0234 167.256C41.798 169.74 37.9449 173.869 35.0349 178.647L28.6875 174.928C31.5913 170.149 35.4444 166.027 39.6636 163.555C44.1744 160.908 48.2508 160.656 51.2229 162.358L51.2291 162.345L51.2911 162.383C51.2973 162.383 51.3036 162.383 51.3036 162.383L57.1546 165.818Z" fill="white"/>
<path d="M48.2994 188.272V194.132C48.2994 194.421 48.2324 194.71 48.0984 194.998C47.9644 195.287 47.8049 195.485 47.6206 195.593L44.4513 197.452C44.2664 197.561 44.1076 197.549 43.9735 197.417C43.8395 197.286 43.7725 197.077 43.7725 196.788V190.927L39.8741 193.214C39.6892 193.322 39.5304 193.311 39.3963 193.179C39.2617 193.049 39.1953 192.839 39.1953 192.55V188.576C39.1953 188.288 39.2623 188 39.3963 187.711C39.5304 187.423 39.6898 187.224 39.8741 187.116L43.7725 184.828V178.968C43.7725 178.68 43.8395 178.391 43.9735 178.102C44.1076 177.813 44.267 177.616 44.4513 177.507L47.6206 175.648C47.8049 175.54 47.9644 175.552 48.0984 175.683C48.2324 175.814 48.2994 176.024 48.2994 176.312V182.174L52.173 179.902C52.3573 179.794 52.5168 179.805 52.6508 179.937C52.7848 180.068 52.8518 180.278 52.8518 180.566V184.54C52.8518 184.829 52.7848 185.118 52.6508 185.406C52.5168 185.695 52.3573 185.893 52.173 186.001L48.2994 188.272Z" fill="white"/>
<path d="M207.776 97.1873L200.528 96.9831C200.04 96.5595 192.427 87.8291 192.427 87.8291C192.427 87.8291 189.687 92.2217 189.641 92.501C189.595 92.7809 197.106 100.942 197.849 101.765C198.26 102.221 198.637 102.585 199.622 102.646C201.586 102.766 208.942 103.291 208.942 103.291L207.776 97.1873Z" fill="#B16668"/>
<path d="M130.37 207.834C129.738 207.464 129.227 206.523 129.227 205.733V107.754C129.227 106.964 129.773 106.003 130.446 105.609L191.017 70.1162C191.69 69.7216 192.748 69.7014 193.38 70.0721C194.011 70.4427 194.523 71.3833 194.523 72.1732L194.524 170.153C194.524 170.943 193.978 171.903 193.305 172.298L132.733 207.791C132.06 208.185 131.002 208.205 130.37 207.834Z" fill="#27DEBF"/>
<path opacity="0.15" d="M132.395 207.93C132.432 207.924 132.476 207.911 132.519 207.892C132.494 207.911 132.463 207.924 132.432 207.93C132.364 207.961 132.289 207.98 132.209 208.005C132.171 208.018 132.128 208.024 132.085 208.037C131.992 208.056 131.898 208.075 131.805 208.081C131.7 208.094 131.588 208.1 131.483 208.1C131.073 208.1 130.676 208.012 130.372 207.835C130.136 207.697 129.913 207.476 129.733 207.211C129.429 206.783 129.23 206.228 129.23 205.736V107.754C129.23 107.552 129.261 107.35 129.324 107.142C129.355 107.035 129.392 106.934 129.435 106.833C129.479 106.726 129.528 106.632 129.584 106.531L131.867 107.874H131.874C131.855 107.905 131.836 107.937 131.818 107.968C131.632 108.327 131.514 108.731 131.514 109.09V207.079C131.514 207.217 131.532 207.344 131.563 207.451C131.613 207.615 131.694 207.741 131.799 207.829C131.874 207.886 131.954 207.924 132.047 207.949C132.091 207.955 132.14 207.961 132.19 207.961C132.246 207.961 132.302 207.955 132.358 207.936C132.37 207.942 132.382 207.936 132.395 207.93Z" fill="black"/>
<path opacity="0.3" d="M194.505 71.9415C194.406 71.3237 193.91 71.1031 193.308 71.4561L132.732 106.947C132.397 107.149 132.093 107.489 131.869 107.874L129.586 106.531C129.803 106.147 130.107 105.806 130.448 105.611L191.018 70.1134C191.695 69.7225 192.75 69.7036 193.382 70.0692C193.953 70.4033 194.425 71.2039 194.505 71.9415Z" fill="white"/>
<path d="M139.364 111.087L185.101 84.258C185.695 83.91 186.176 84.1918 186.176 84.8884V85.3234C186.176 86.0199 185.694 86.8666 185.101 87.2145L139.363 114.044C138.769 114.391 138.288 114.11 138.289 113.413V112.978C138.29 112.282 138.771 111.435 139.364 111.087Z" fill="#FAFAFA"/>
<path d="M139.364 120.12L185.101 93.2912C185.695 92.9432 186.176 93.225 186.176 93.9216V94.3572C186.176 95.0531 185.694 95.9004 185.101 96.2484L139.363 123.077C138.769 123.425 138.288 123.144 138.289 122.447V122.012C138.29 121.315 138.771 120.468 139.364 120.12Z" fill="#FAFAFA"/>
<path d="M139.364 129.154L185.101 102.325C185.695 101.977 186.176 102.259 186.176 102.956V103.391C186.176 104.087 185.694 104.934 185.101 105.282L139.363 132.111C138.769 132.459 138.288 132.176 138.289 131.481V131.046C138.29 130.349 138.771 129.502 139.364 129.154Z" fill="#FAFAFA"/>
<path d="M139.364 138.189L185.101 111.36C185.695 111.012 186.176 111.293 186.176 111.99V112.426C186.176 113.122 185.694 113.969 185.101 114.317L139.363 141.146C138.769 141.494 138.288 141.212 138.289 140.515V140.08C138.29 139.384 138.771 138.537 139.364 138.189Z" fill="#FAFAFA"/>
<path d="M139.364 147.223L185.101 120.394C185.695 120.046 186.176 120.328 186.176 121.024V121.459C186.176 122.156 185.694 123.002 185.101 123.35L139.363 150.179C138.769 150.527 138.288 150.245 138.289 149.549V149.114C138.29 148.417 138.771 147.571 139.364 147.223Z" fill="#FAFAFA"/>
<path d="M139.364 156.256L185.101 129.427C185.695 129.079 186.176 129.361 186.176 130.057V130.492C186.176 131.189 185.694 132.036 185.101 132.383L139.363 159.212C138.769 159.56 138.288 159.279 138.289 158.582V158.147C138.29 157.451 138.771 156.604 139.364 156.256Z" fill="#FAFAFA"/>
<path d="M139.364 165.291L185.101 138.462C185.695 138.114 186.176 138.395 186.176 139.092V139.527C186.176 140.224 185.694 141.07 185.101 141.418L139.363 168.247C138.769 168.595 138.288 168.313 138.289 167.617V167.182C138.29 166.485 138.771 165.639 139.364 165.291Z" fill="#FAFAFA"/>
<path d="M139.364 174.324L185.101 147.495C185.695 147.147 186.176 147.429 186.176 148.125V148.561C186.176 149.257 185.694 150.104 185.101 150.452L139.363 177.281C138.769 177.629 138.288 177.347 138.289 176.651V176.216C138.29 175.518 138.771 174.672 139.364 174.324Z" fill="#FAFAFA"/>
<path d="M139.364 183.357L185.101 156.528C185.695 156.181 186.176 156.462 186.176 157.159V157.594C186.176 158.29 185.694 159.137 185.101 159.485L139.363 186.314C138.769 186.662 138.288 186.38 138.289 185.684V185.249C138.29 184.553 138.771 183.706 139.364 183.357Z" fill="#FAFAFA"/>
<path d="M139.364 192.392L185.101 165.563C185.695 165.215 186.176 165.496 186.176 166.193V166.628C186.176 167.325 185.694 168.171 185.101 168.519L139.363 195.348C138.769 195.696 138.288 195.414 138.289 194.718V194.283C138.29 193.586 138.771 192.74 139.364 192.392Z" fill="#FAFAFA"/>
<path d="M209.125 95.9097H217.733C223.882 95.9097 228.866 90.8457 228.866 84.5991C228.866 79.0605 224.447 74.5708 218.995 74.5708C213.544 74.5708 209.125 79.0605 209.125 84.5991V95.9097Z" fill="#263238"/>
<path d="M226.641 78.5223L229.03 77.2192C228.692 76.5239 227.881 76.2516 227.222 76.6115C226.562 76.9715 226.302 77.8269 226.641 78.5223Z" fill="#263238"/>
<path d="M226.492 78.7977L229.032 79.7629C229.323 79.0455 228.991 78.2474 228.289 77.9807C227.588 77.7141 226.783 78.0797 226.492 78.7977Z" fill="#263238"/>
<path d="M217.988 104.251L205.997 103.724C204.934 102.243 204.963 98.3262 206.031 97.0742L219.304 97.4424L217.988 104.251Z" fill="#27DEBF"/>
<path d="M210.68 179.848C210.78 181.124 210.777 181.506 210.777 182.297C210.777 183.088 210.777 187.096 210.777 187.096H214.886V184.281C214.886 183.008 214.989 181.738 215.193 180.482L210.68 179.848Z" fill="#B16668"/>
<path d="M210.776 185.038V184.441C210.659 185.352 208.107 188.765 206.477 190.276C205.181 191.477 203.412 192.864 202.962 194.203C202.495 195.596 205.052 196.147 206.727 195.977C208.689 195.778 210.22 194.58 210.945 193.735C212.012 192.492 212.269 191.671 212.766 190.987C213.264 190.303 215.497 188.905 215.766 188.113C215.914 187.678 215.739 186.726 215.531 185.921C215.341 185.183 215.134 184.371 214.886 184.44C214.885 184.53 214.886 184.895 214.886 184.895C214.588 185.231 213.762 185.565 212.832 185.601C212.229 185.625 210.771 185.504 210.776 185.038Z" fill="#263238"/>
<path d="M214.885 184.896C214.587 185.232 213.761 185.565 212.831 185.601C212.23 185.624 210.771 185.503 210.776 185.037V184.44C210.659 185.351 208.107 188.764 206.477 190.275C206.166 190.562 205.828 190.861 205.489 191.167C204.799 191.947 204.995 192.628 206.615 192.77C208.235 192.912 209.66 191.919 210.889 190.386C212.118 188.853 214.885 184.896 214.885 184.896Z" fill="#B16668"/>
<path d="M223.234 186.917C223.314 187.928 223.318 188.983 223.332 189.433V194.233H227.441V191.417C227.441 190.144 227.544 188.874 227.748 187.618L223.234 186.917Z" fill="#B16668"/>
<path d="M223.331 192.174V191.577C223.214 192.488 220.661 195.901 219.031 197.412C217.735 198.613 215.967 200 215.517 201.339C215.049 202.732 217.606 203.283 219.282 203.113C221.244 202.914 222.775 201.716 223.5 200.871C224.567 199.629 224.824 198.808 225.321 198.124C225.819 197.44 228.052 196.041 228.321 195.25C228.469 194.815 228.293 193.863 228.086 193.058C227.895 192.319 227.689 191.508 227.441 191.577C227.44 191.667 227.441 192.032 227.441 192.032C227.142 192.368 226.317 192.701 225.386 192.737C224.784 192.762 223.326 192.64 223.331 192.174Z" fill="#263238"/>
<path d="M227.44 192.032C227.142 192.368 226.316 192.702 225.385 192.738C224.784 192.761 223.326 192.64 223.331 192.174V191.577C223.214 192.487 220.662 195.9 219.031 197.411C218.721 197.699 218.383 197.998 218.043 198.303C217.354 199.084 217.55 199.765 219.17 199.907C220.79 200.048 222.214 199.056 223.443 197.522C224.673 195.99 227.44 192.032 227.44 192.032Z" fill="#B16668"/>
<path d="M210.681 181.828C209.802 174.468 208.359 161.749 207.937 158.97C207.546 156.393 208.53 134.362 209.13 127.37L230.533 126.205C232.162 133.291 230.576 142.846 230.018 148.815C229.475 154.623 228.803 161.413 228.803 161.413C228.803 161.413 230.476 167.33 230.033 172.043C229.751 175.009 228.439 183.971 227.816 187.801C226.712 188.496 224.672 188.611 223.12 187.738C223.191 188.551 222.357 177.818 221.864 173.48C221.179 167.458 220.921 163.068 220.314 159.554C219.549 155.169 219.284 137.982 219.284 137.982L216.819 157.478C216.819 157.478 217.208 160.13 217.208 163.812C217.208 168.164 215.627 178.063 215.129 181.759C214.048 182.523 211.862 182.759 210.681 181.828Z" fill="#455A64"/>
<path d="M219.283 137.982C219.283 137.982 215.372 136.588 213.145 134.51C213.145 134.51 214.661 137.171 217.731 138.584L217.763 149.998L219.283 137.982Z" fill="#37474F"/>
<path d="M222.403 97.5335C222.403 97.5335 228.217 98.2124 228.912 98.5301C225.369 102.472 229.14 105.737 229.14 105.737L226.446 117.8C228.771 120.823 230.1 123.153 230.656 126.756C228.165 131.215 214.172 131.835 209.043 128.512C209.49 122.288 210.485 117.832 210.153 115.964C207.709 108.321 208.471 106.72 208.7 104.975C209.147 101.565 212.478 98.5932 214.381 97.3481C214.381 97.3481 215.806 97.3481 216.156 97.3481L222.403 97.5335Z" fill="#F0F0F0"/>
<path d="M212.361 79.48C211.319 80.106 210.03 82.77 210.157 88.3553C210.265 93.0889 211.775 94.2583 212.534 94.595C213.292 94.9322 214.754 94.7267 216.176 94.4859V97.3271C216.176 97.3271 214.211 99.6457 214.335 100.949C214.458 102.252 217.172 102.559 219.011 101.287C220.849 100.014 222.398 97.5339 222.398 97.5339L222.366 91.0017C222.366 91.0017 223.203 91.8275 224.622 90.5674C225.793 89.5272 226.188 87.7722 225.275 86.831C224.362 85.8898 222.675 86.1458 222.028 87.4885C222.028 87.4885 221.237 85.2588 217.963 84.1714C215.004 83.1886 213.396 82.0577 212.361 79.48Z" fill="#B16668"/>
<path d="M215.673 87.1667C215.656 87.5077 215.904 87.7971 216.227 87.8128C216.551 87.8286 216.826 87.5644 216.843 87.2234C216.86 86.8824 216.611 86.593 216.288 86.5779C215.965 86.5615 215.689 86.8256 215.673 87.1667Z" fill="#263238"/>
<path d="M215.521 91.1797L214.16 91.6203C214.273 92.0162 214.669 92.2381 215.045 92.1165C215.421 91.9948 215.634 91.5756 215.521 91.1797Z" fill="#9A4A4D"/>
<path d="M210.876 85.3384L212.062 84.5037C211.845 84.1595 211.404 84.0681 211.077 84.2982C210.749 84.529 210.659 84.9948 210.876 85.3384Z" fill="#263238"/>
<path d="M217.381 85.7793L216.195 84.9447C216.412 84.6005 216.852 84.5091 217.18 84.7392C217.508 84.9699 217.597 85.4357 217.381 85.7793Z" fill="#263238"/>
<path d="M211.145 86.7356C211.129 87.0766 211.377 87.3654 211.7 87.3811C212.023 87.3969 212.299 87.1327 212.316 86.7917C212.332 86.4507 212.084 86.1613 211.761 86.1462C211.438 86.1304 211.163 86.3946 211.145 86.7356Z" fill="#263238"/>
<path d="M213.907 86.395L213.813 89.9782L211.957 89.3944L213.907 86.395Z" fill="#9A4A4D"/>
<path d="M216.184 94.4864C217.682 94.2866 220.765 93.387 221.245 92.1489C221.245 92.1489 221.085 92.9268 220.164 93.7287C219.243 94.5306 216.184 95.4339 216.184 95.4339V94.4864Z" fill="#9A4A4D"/>
<path d="M227.646 112.413L222.688 119.769L226.443 117.8L227.646 112.413Z" fill="#E0E0E0"/>
<path d="M225.357 100.138C223.988 101.578 213.724 112.364 213.724 112.364C213.724 112.364 202.301 111.22 198.421 110.092C197.199 109.738 196.21 108.035 195.941 106.604C195.672 105.173 194.582 105.022 194.582 105.022V107.885C194.484 108.61 194.135 108.985 193.115 109.008C189.192 109.096 187.376 107.885 186.897 110.05C186.593 111.43 187.184 113.003 189.775 113.725C193.408 114.736 195.415 114.231 197.629 114.789C199.336 115.219 211.238 117.519 213.578 118.039C214.816 118.313 215.759 118.226 217.102 116.875C218.445 115.524 228.546 105.949 228.546 105.949C231.63 102.818 230.728 99.5623 229.004 98.5997C227.925 97.9945 226.726 98.6993 225.357 100.138Z" fill="#B16668"/>
<path d="M228.916 98.5318C229.67 98.8419 230.588 99.652 230.659 101.761C230.731 103.869 229.202 105.781 227.396 107.974C225.591 110.168 225.048 110.748 225.048 110.748C225.048 110.748 220.476 109.062 219.703 105.61C219.703 105.61 223.144 101.909 224.177 100.721C225.21 99.5322 227.105 97.7154 228.916 98.5318Z" fill="#27DEBF"/>
<path d="M205.333 18.7592L209.647 21.2896C209.625 21.0942 209.61 20.8994 209.61 20.7096V19.44C209.61 17.1807 211.171 16.2647 213.097 17.3944C213.877 17.852 214.594 18.577 215.175 19.4249C215.49 16.5837 217.684 15.5259 220.348 17.0886C223.229 18.7787 225.565 22.8889 225.565 26.2691V28.1684C225.565 29.0441 225.406 29.781 225.123 30.3685L228.706 32.4703C229.775 33.0969 230.64 34.6205 230.64 35.8738C230.64 37.127 229.774 37.6351 228.706 37.0085L205.332 23.298C204.264 22.6714 203.398 21.1477 203.398 19.8945C203.399 18.6407 204.265 18.1326 205.333 18.7592Z" fill="#EBEBEB"/>
<path d="M186.875 31.5277L190.13 33.4371C190.113 33.2896 190.102 33.1427 190.102 32.999V32.0408C190.102 30.3356 191.281 29.6447 192.734 30.497C193.323 30.8424 193.864 31.389 194.302 32.0294C194.541 29.8855 196.196 29.0868 198.207 30.2662C200.381 31.5415 202.144 34.6437 202.144 37.1943V38.6278C202.144 39.2885 202.023 39.8451 201.811 40.2883L204.515 41.8743C205.321 42.3471 205.975 43.4976 205.975 44.4432C205.975 45.3888 205.321 45.7727 204.515 45.2993L186.874 34.952C186.068 34.4792 185.414 33.3287 185.414 32.3831C185.415 31.4381 186.068 31.0549 186.875 31.5277Z" fill="#EBEBEB"/>
</svg>
